<?xml version="1.0" encoding="utf-8"?>
<!-- Generator: Adobe Illustrator 24.3.0, SVG Export Plug-In . SVG Version: 6.00 Build 0)  -->
<svg version="1.1" xmlns="http://www.w3.org/2000/svg" xmlns:xlink="http://www.w3.org/1999/xlink" x="0px" y="0px"
	 viewBox="0 0 449.84 248.76" style="enable-background:new 0 0 449.84 248.76;" xml:space="preserve">
<style type="text/css">
	.st0{fill:#4790CD;}
</style>
<g id="Capa_1">
</g>
<g id="Layer_5">
	<g>
		<path d="M91.55,123.56H70.09c-2.55-3.45-5.58-6.05-9.1-7.77c-3.52-1.73-7.52-2.59-12-2.59c-3.62,0-7.05,0.68-10.3,2.04
			c-3.25,1.36-6.13,3.33-8.64,5.92c-2.67,2.71-4.74,5.85-6.2,9.41c-1.46,3.56-2.19,7.21-2.19,10.95c0,8.23,2.64,15.12,7.93,20.7
			c5.28,5.57,11.75,8.36,19.4,8.36c4.4,0,8.36-0.82,11.87-2.47c3.52-1.64,6.36-4.03,8.54-7.16h21.53
			c-4.2,9.17-9.79,16.06-16.78,20.67c-6.99,4.61-15.34,6.91-25.04,6.91c-6.75,0-12.97-1.3-18.66-3.89
			c-5.7-2.59-10.81-6.44-15.33-11.54c-3.82-4.24-6.72-9.06-8.7-14.47c-1.97-5.41-2.96-11.2-2.96-17.37c0-6.25,1.19-12.18,3.58-17.8
			c2.38-5.61,5.88-10.72,10.49-15.33c4.36-4.28,9.2-7.52,14.53-9.72c5.33-2.2,11.05-3.3,17.18-3.3c9.83,0,18.23,2.34,25.2,7.03
			C81.41,106.85,87.11,113.98,91.55,123.56z"/>
		<path d="M96.11,186.73V96.91h15.42v89.82H96.11z"/>
		<path d="M164.02,186.73v-7.34c-2.3,3.08-4.95,5.38-7.93,6.88c-2.98,1.5-6.38,2.25-10.21,2.25c-8.51,0-15.05-2.61-19.62-7.83
			c-4.56-5.22-6.85-12.73-6.85-22.52v-39.29h15.98v30.47c0,9.17,1.05,15.44,3.15,18.82c2.1,3.37,5.72,5.06,10.86,5.06
			c5.26,0,9.04-1.89,11.32-5.68c2.28-3.78,3.42-10.2,3.42-19.25v-29.43h15.55v67.86H164.02z"/>
		<path d="M198.18,164.22v0.92c0,3,0.76,5.44,2.28,7.31c1.52,1.87,3.5,2.81,5.92,2.81c2.3,0,4.18-0.7,5.64-2.1
			c1.46-1.4,2.19-3.19,2.19-5.37c0-2.01-0.53-3.67-1.6-4.96c-1.07-1.3-2.98-2.6-5.74-3.92c-1.56-0.7-3.87-1.67-6.91-2.9
			c-3.04-1.23-5-2.2-5.86-2.9c-2.51-2.06-4.36-4.35-5.55-6.88c-1.19-2.53-1.79-5.42-1.79-8.67c0-5.72,2-10.55,6.01-14.5
			c4.01-3.95,8.87-5.92,14.59-5.92c6.05,0,10.83,1.75,14.34,5.24c3.52,3.5,5.44,8.39,5.77,14.68H213.3v-0.37
			c0-2.18-0.57-3.89-1.7-5.12c-1.13-1.23-2.7-1.85-4.72-1.85c-1.77,0-3.24,0.61-4.41,1.82c-1.17,1.21-1.76,2.73-1.76,4.53
			c0,2.96,3.04,5.72,9.13,8.27c1.6,0.66,2.84,1.17,3.7,1.54c5.84,2.63,9.83,5.46,11.97,8.48c2.14,3.02,3.21,7.1,3.21,12.24
			c0,6.33-2.14,11.57-6.42,15.7c-4.28,4.13-9.66,6.2-16.16,6.2c-6.54,0-11.81-2.18-15.82-6.54c-4.01-4.36-6.2-10.26-6.57-17.7
			L198.18,164.22z"/>
		<path d="M238.52,186.73v-53.79h-10.36v-14.06h10.36V96.91h15.79v21.96h10.42v14.06h-10.42v53.79H238.52z"/>
		<path d="M278.91,157.8c0.53,4.89,2.48,8.75,5.83,11.57c3.35,2.82,7.68,4.22,12.99,4.22c3.54,0,6.71-0.74,9.53-2.22
			c2.82-1.48,5.05-3.56,6.69-6.23h17.03c-2.88,7.4-7.19,13.15-12.92,17.24c-5.74,4.09-12.37,6.14-19.89,6.14
			c-5.06,0-9.72-0.89-13.97-2.68c-4.26-1.79-8.07-4.43-11.44-7.93c-3.21-3.33-5.7-7.19-7.46-11.57c-1.77-4.38-2.65-8.87-2.65-13.48
			c0-4.73,0.81-9.18,2.44-13.36c1.62-4.17,4.02-7.93,7.19-11.26c3.45-3.66,7.36-6.48,11.72-8.45c4.36-1.97,8.86-2.96,13.51-2.96
			c5.88,0,11.37,1.34,16.47,4.01c5.1,2.67,9.44,6.44,13.02,11.29c2.18,2.92,3.79,6.19,4.84,9.81c1.05,3.62,1.57,7.77,1.57,12.46
			c0,0.37-0.02,0.94-0.06,1.7c-0.04,0.76-0.06,1.33-0.06,1.7H278.91z M316.36,145.28c-1.36-4.52-3.63-7.97-6.82-10.33
			c-3.19-2.37-7.21-3.55-12.06-3.55c-4.19,0-7.96,1.27-11.29,3.82c-3.33,2.55-5.57,5.9-6.72,10.05H316.36z"/>
		<path d="M369.15,132.63c-6.13,0.49-10.41,2.1-12.83,4.81c-2.43,2.71-3.64,7.61-3.64,14.68v34.61h-15.79v-67.86h14.8v7.83
			c2.38-3.04,5-5.27,7.83-6.69c2.84-1.42,6.05-2.13,9.62-2.13V132.63z"/>
	</g>
	<g>
		<path class="st0" d="M370.17,186.73l14.99-74.64h-18.94l2.9-15.18h53.61l-2.9,15.18h-17.09l-15.05,74.64H370.17z"/>
		<path class="st0" d="M408.35,186.73l13.14-67.86h15.67l-13.14,67.86H408.35z M422.9,111.72l2.9-14.81h15.67l-2.9,14.81H422.9z"/>
	</g>
	<g>
		<path d="M273.52,208.85c-0.89-3.06-2.47-5.41-4.73-7.05c-2.26-1.64-5.06-2.46-8.42-2.46c-2.3,0-4.48,0.42-6.52,1.26
			s-3.87,2.06-5.46,3.66c-1.63,1.63-2.89,3.58-3.78,5.84c-0.89,2.26-1.33,4.64-1.33,7.15c0,4.37,1.23,7.82,3.7,10.38
			c2.47,2.55,5.8,3.83,10.01,3.83c3.02,0,5.75-0.7,8.18-2.09s4.49-3.43,6.17-6.11h4.28c-1.74,3.69-4.24,6.55-7.53,8.56
			c-3.28,2.01-7.07,3.02-11.37,3.02c-5.26,0-9.48-1.55-12.66-4.64c-3.18-3.09-4.77-7.18-4.77-12.27c0-3.13,0.49-6.03,1.47-8.71
			c0.98-2.68,2.39-4.97,4.23-6.86c2.06-2.13,4.36-3.75,6.9-4.85c2.53-1.1,5.24-1.65,8.11-1.65c4.66,0,8.53,1.14,11.62,3.43
			c3.09,2.29,5.08,5.47,5.95,9.56H273.52z"/>
		<path d="M286.78,196.56l-2.37,11.88c1.44-1.08,2.87-1.89,4.28-2.42s2.81-0.8,4.2-0.8c3.06,0,5.54,0.86,7.45,2.58
			c1.91,1.72,2.86,3.95,2.86,6.7c0,1.05-0.06,2.14-0.19,3.29c-0.13,1.14-0.31,2.28-0.55,3.42l-2.58,12.89h-3.51l2.91-14.51
			c0.15-0.77,0.27-1.5,0.35-2.19c0.08-0.69,0.12-1.35,0.14-1.98c0-2.17-0.6-3.85-1.8-5.05c-1.2-1.2-2.88-1.8-5.03-1.8
			c-2.85,0-5.13,0.85-6.84,2.54c-1.71,1.69-2.93,4.33-3.65,7.9l-3.07,15.1h-3.32l7.35-37.53H286.78z"/>
		<path d="M313.55,205.73l-5.49,28.35h-3.38l5.54-28.35H313.55z M310.74,202.95l1.21-6.39h3.38l-1.21,6.39H310.74z"/>
		<path d="M340.73,234.08h-3.74l0.46-2.17c-1.46,0.95-2.98,1.66-4.55,2.14c-1.57,0.48-3.2,0.72-4.88,0.72
			c-3.97,0-7.23-1.28-9.77-3.83s-3.81-5.82-3.81-9.81c0-2.29,0.41-4.44,1.22-6.47c0.82-2.03,2-3.81,3.54-5.36
			c1.43-1.43,3.06-2.51,4.9-3.25c1.84-0.74,3.81-1.11,5.9-1.11c2.73,0,5.05,0.5,6.96,1.51c1.91,1,3.43,2.52,4.56,4.55l1.06-5.28
			h3.58L340.73,234.08z M340.16,218.67c0-3.16-0.91-5.71-2.72-7.66c-1.81-1.94-4.2-2.91-7.15-2.91c-1.39,0-2.73,0.24-4.01,0.71
			c-1.28,0.47-2.44,1.16-3.49,2.05c-1.43,1.22-2.55,2.75-3.36,4.6c-0.82,1.85-1.22,3.78-1.22,5.79c0,3.09,0.94,5.59,2.81,7.5
			c1.87,1.91,4.33,2.86,7.37,2.86c3.3,0,6.09-1.24,8.36-3.72C339.02,225.4,340.16,222.33,340.16,218.67z"/>
		<path d="M349.97,205.73h3.69l-0.67,2.86c1.25-1.22,2.66-2.13,4.23-2.73c1.56-0.6,3.28-0.9,5.16-0.9c4.02,0,7.32,1.28,9.88,3.83
			c2.57,2.55,3.85,5.83,3.85,9.83c0,2.27-0.41,4.42-1.24,6.44c-0.83,2.03-2.02,3.82-3.58,5.39c-1.43,1.43-3.05,2.5-4.86,3.23
			c-1.81,0.73-3.78,1.1-5.89,1.1c-2.7,0-5-0.49-6.92-1.48c-1.92-0.99-3.5-2.5-4.76-4.55L346,243.26h-3.43L349.97,205.73z
			 M350.33,221.09c0,3.16,0.92,5.71,2.75,7.63c1.83,1.92,4.22,2.89,7.18,2.89c1.39,0,2.73-0.24,4.01-0.71
			c1.28-0.47,2.44-1.16,3.49-2.05c1.43-1.22,2.55-2.75,3.36-4.59c0.82-1.84,1.22-3.77,1.22-5.8c0-3.09-0.94-5.59-2.81-7.5
			s-4.33-2.86-7.37-2.86c-3.3,0-6.1,1.25-8.39,3.75S350.33,217.43,350.33,221.09z"/>
		<path d="M403.75,234.08h-3.74l0.46-2.17c-1.46,0.95-2.98,1.66-4.55,2.14c-1.57,0.48-3.2,0.72-4.88,0.72
			c-3.97,0-7.23-1.28-9.77-3.83s-3.81-5.82-3.81-9.81c0-2.29,0.41-4.44,1.22-6.47s2-3.81,3.54-5.36c1.43-1.43,3.06-2.51,4.9-3.25
			c1.84-0.74,3.81-1.11,5.9-1.11c2.73,0,5.05,0.5,6.96,1.51c1.91,1,3.43,2.52,4.56,4.55l1.06-5.28h3.58L403.75,234.08z
			 M403.18,218.67c0-3.16-0.91-5.71-2.72-7.66c-1.81-1.94-4.2-2.91-7.15-2.91c-1.39,0-2.73,0.24-4.01,0.71
			c-1.28,0.47-2.44,1.16-3.49,2.05c-1.43,1.22-2.55,2.75-3.36,4.6c-0.82,1.85-1.22,3.78-1.22,5.79c0,3.09,0.94,5.59,2.81,7.5
			c1.87,1.91,4.33,2.86,7.37,2.86c3.3,0,6.09-1.24,8.36-3.72C402.05,225.4,403.18,222.33,403.18,218.67z"/>
		<path d="M408.1,226.02h3.38v0.1c0,1.62,0.43,2.92,1.3,3.93c0.87,1.01,2,1.51,3.39,1.51c1.29,0,2.41-0.51,3.36-1.53
			s1.43-2.22,1.43-3.6c0-1.79-1.43-3.63-4.28-5.54l-0.16-0.1c-2.35-1.58-3.89-2.93-4.61-4.03c-0.72-1.11-1.08-2.42-1.08-3.93
			c0-2.25,0.74-4.14,2.23-5.66s3.33-2.28,5.53-2.28c2.08,0,3.75,0.61,5.01,1.84s1.89,2.86,1.89,4.88c0,0.31,0,0.55-0.01,0.72
			c-0.01,0.17-0.02,0.31-0.04,0.41l-3.33,0.03c0-0.07,0.01-0.18,0.03-0.35c0.02-0.16,0.03-0.28,0.03-0.35c0-1.22-0.33-2.19-0.98-2.9
			c-0.65-0.71-1.54-1.07-2.65-1.07c-1.22,0-2.23,0.4-3.03,1.21c-0.8,0.81-1.2,1.81-1.2,3.02c0,1.55,1.49,3.34,4.46,5.39
			c0.28,0.19,0.48,0.33,0.62,0.44h0.03c3.47,2.39,5.21,4.9,5.21,7.53c0,2.7-0.83,4.91-2.47,6.62c-1.65,1.72-3.77,2.58-6.37,2.58
			c-2.23,0-4.09-0.74-5.55-2.23s-2.2-3.36-2.2-5.63c0-0.27,0-0.48,0.01-0.62C408.04,226.27,408.06,226.14,408.1,226.02z"/>
	</g>
	<polygon class="st0" points="219.16,96.22 124.62,96.22 122.83,90.01 131.54,68.32 79.35,68.32 94.5,41.67 204.62,41.67 
		219.31,56.37 205.75,69.93 158.62,69.93 158.62,64.26 203.4,64.26 211.3,56.37 202.27,47.34 97.8,47.34 89.09,62.65 139.92,62.65 
		128.82,90.32 128.89,90.55 216.81,90.55 250.46,56.9 215.62,22.07 129.05,22.07 129.05,16.4 217.97,16.4 258.48,56.9 	"/>
	<path class="st0" d="M124.45,27.57c-4.6,0-8.34-3.74-8.34-8.34s3.74-8.34,8.34-8.34c4.6,0,8.34,3.74,8.34,8.34
		S129.05,27.57,124.45,27.57z M124.45,16.56c-1.47,0-2.67,1.2-2.67,2.67c0,1.47,1.2,2.67,2.67,2.67s2.67-1.2,2.67-2.67
		C127.12,17.76,125.92,16.56,124.45,16.56z"/>
	<path class="st0" d="M153.75,75.43c-4.6,0-8.34-3.74-8.34-8.34c0-4.6,3.74-8.34,8.34-8.34s8.34,3.74,8.34,8.34
		C162.09,71.69,158.35,75.43,153.75,75.43z M153.75,64.41c-1.47,0-2.67,1.2-2.67,2.67c0,1.47,1.2,2.67,2.67,2.67
		c1.47,0,2.67-1.2,2.67-2.67C156.42,65.61,155.22,64.41,153.75,64.41z"/>
</g>
</svg>
