<?xml version="1.0" encoding="utf-8"?>
<!-- Generator: Adobe Illustrator 24.3.0, SVG Export Plug-In . SVG Version: 6.00 Build 0)  -->
<svg version="1.1" xmlns="http://www.w3.org/2000/svg" xmlns:xlink="http://www.w3.org/1999/xlink" x="0px" y="0px"
	 viewBox="0 0 250 250" style="enable-background:new 0 0 250 250;" xml:space="preserve">
<style type="text/css">
	.st0{fill:#05194C;}
	.st1{fill:url(#SVGID_1_);}
	.st2{fill:#03123D;}
	.st3{fill:#FFFFFF;}
	.st4{fill:url(#SVGID_2_);}
	.st5{fill:url(#SVGID_3_);}
	.st6{fill:url(#SVGID_4_);}
	.st7{fill:url(#SVGID_5_);}
	.st8{fill:#1D1D1B;}
</style>
<g id="Capa_1">
</g>
<g id="Background">
	<g>
		<polygon class="st0" points="189.15,229.05 249,125.39 189.15,21.73 69.45,21.73 9.6,125.39 69.45,229.05 		"/>
		<radialGradient id="SVGID_1_" cx="120.7022" cy="124.6093" r="111.9707" gradientUnits="userSpaceOnUse">
			<stop  offset="0" style="stop-color:#006FFF"/>
			<stop  offset="0.1364" style="stop-color:#0068F1"/>
			<stop  offset="0.3955" style="stop-color:#0056CB"/>
			<stop  offset="0.7467" style="stop-color:#00388F"/>
			<stop  offset="1" style="stop-color:#002160"/>
		</radialGradient>
		<polygon class="st1" points="180.55,228.27 240.4,124.61 180.55,20.95 60.85,20.95 1,124.61 60.85,228.27 		"/>
		<g>
			<path class="st2" d="M155.49,103.38v2.46c0.86-0.48,1.76-0.87,2.7-1.15v-0.58c0-2.27,1.74-4.12,3.89-4.12
				c0.95,0,1.81,0.38,2.48,0.98v-2.41c0-2.67-2.03-4.82-4.54-4.82H127.7l1.15,1.35l-6.88,8.29H155.49z"/>
			<g>
				<path class="st2" d="M162.08,113.75c-2.86,0-5.18,2.47-5.18,5.5c0,3.03,2.32,5.5,5.18,5.5s5.18-2.47,5.18-5.5
					C167.25,116.22,164.93,113.75,162.08,113.75z M162.08,122c-1.43,0-2.59-1.23-2.59-2.75c0-1.52,1.16-2.75,2.59-2.75
					c1.43,0,2.59,1.23,2.59,2.75C164.66,120.77,163.5,122,162.08,122z"/>
				<path class="st2" d="M176.33,115.13h-0.54c-0.3-1.14-0.73-2.23-1.27-3.26l0.38-0.4c1.52-1.61,1.52-4.23,0-5.83
					c-0.73-0.78-1.71-1.21-2.75-1.21c0,0,0,0,0,0c-1.03,0-2.01,0.43-2.74,1.21l-0.38,0.41c-0.97-0.58-1.99-1.03-3.06-1.35v-0.58
					c0-2.27-1.74-4.12-3.89-4.12c-2.14,0-3.89,1.85-3.89,4.12v0.58c-1.07,0.32-2.09,0.77-3.06,1.35l-0.38-0.4
					c-1.51-1.61-3.98-1.61-5.49,0c-0.73,0.78-1.14,1.82-1.14,2.92c0,1.1,0.41,2.13,1.14,2.91l0.38,0.4
					c-0.54,1.03-0.97,2.12-1.27,3.26h-0.54c-2.14,0-3.88,1.85-3.88,4.13c0,2.28,1.74,4.12,3.88,4.12h0.54
					c0.3,1.13,0.72,2.22,1.27,3.25l-0.38,0.41c-1.52,1.61-1.51,4.22,0,5.83c0.74,0.78,1.71,1.21,2.75,1.21c0,0,0,0,0,0
					c1.03,0,2.01-0.42,2.74-1.21l0.38-0.4c0.97,0.58,1.99,1.03,3.06,1.34v0.58c0,2.28,1.74,4.13,3.89,4.13
					c2.14,0,3.89-1.85,3.89-4.13v-0.58c1.07-0.31,2.09-0.77,3.06-1.34l0.38,0.4c1.52,1.61,3.98,1.61,5.49,0
					c0.74-0.78,1.14-1.83,1.14-2.92c0-1.1-0.41-2.13-1.14-2.91l-0.38-0.41c0.54-1.03,0.97-2.12,1.27-3.25h0.54
					c2.14,0,3.88-1.85,3.88-4.12C180.21,116.98,178.47,115.13,176.33,115.13z M176.33,120.63h-1.56c-0.62,0-1.15,0.46-1.27,1.11
					c-0.3,1.56-0.87,3.02-1.7,4.34c-0.34,0.55-0.27,1.28,0.16,1.73l1.1,1.18c0.24,0.26,0.38,0.6,0.38,0.96
					c0,0.37-0.13,0.72-0.38,0.97c-0.5,0.54-1.32,0.54-1.83,0.01l-1.1-1.17c-0.44-0.46-1.12-0.54-1.63-0.18
					c-1.25,0.88-2.63,1.49-4.09,1.8c-0.61,0.13-1.04,0.69-1.04,1.36v1.65c0,0.77-0.57,1.37-1.29,1.37c-0.72,0-1.29-0.62-1.29-1.37
					v-1.65c0-0.66-0.44-1.22-1.04-1.36c-1.46-0.31-2.84-0.92-4.09-1.8c-0.22-0.15-0.47-0.23-0.71-0.23c-0.34,0-0.67,0.13-0.92,0.4
					l-1.1,1.17c-0.24,0.26-0.57,0.4-0.91,0.4l0,0c-0.34,0-0.67-0.14-0.92-0.41c-0.5-0.54-0.5-1.4,0-1.94l1.1-1.17
					c0.44-0.46,0.5-1.19,0.16-1.73c-0.83-1.33-1.4-2.79-1.7-4.34c-0.13-0.64-0.65-1.11-1.27-1.11h-1.56c-0.71,0-1.29-0.62-1.29-1.37
					c0-0.76,0.58-1.38,1.29-1.38h1.56c0.62,0,1.15-0.46,1.27-1.1c0.3-1.56,0.86-3.02,1.7-4.35c0.34-0.54,0.27-1.27-0.16-1.73
					l-1.1-1.18c-0.25-0.26-0.38-0.6-0.38-0.96c0-0.37,0.14-0.72,0.38-0.97c0.5-0.54,1.32-0.54,1.83-0.01l1.1,1.17
					c0.44,0.47,1.12,0.54,1.63,0.17c1.25-0.88,2.63-1.48,4.09-1.8c0.61-0.13,1.04-0.69,1.04-1.35v-1.66c0-0.77,0.57-1.36,1.29-1.36
					c0.72,0,1.29,0.61,1.29,1.36v1.66c0,0.65,0.43,1.22,1.04,1.35c1.47,0.32,2.84,0.92,4.09,1.8c0.51,0.37,1.19,0.29,1.63-0.17
					l1.11-1.18c0.24-0.26,0.57-0.4,0.91-0.4c0,0,0,0,0,0c0.34,0,0.67,0.15,0.92,0.42c0.5,0.53,0.5,1.4,0,1.94l-1.1,1.18
					c-0.44,0.46-0.5,1.19-0.16,1.73c0.83,1.33,1.4,2.79,1.7,4.35c0.12,0.65,0.65,1.1,1.27,1.1h1.56c0.71,0,1.29,0.62,1.29,1.38
					C177.62,120.01,177.04,120.63,176.33,120.63z"/>
				<path class="st2" d="M201.85,99.02c-1.23-0.78-2.67-1.02-4.07-0.65c-1.39,0.37-2.57,1.3-3.31,2.61
					c-0.74,1.31-0.96,2.84-0.61,4.33c0.61,2.59,2.81,4.34,5.23,4.34c0.43,0,0.86-0.05,1.3-0.17c2.88-0.77,4.64-3.87,3.92-6.93
					C203.95,101.06,203.09,99.81,201.85,99.02z M201.48,105.45c-0.39,0.68-1,1.16-1.72,1.35c-1.49,0.39-3.01-0.57-3.38-2.16
					c-0.18-0.77-0.07-1.57,0.32-2.24c0.38-0.68,0.99-1.16,1.72-1.35c0.22-0.06,0.46-0.09,0.68-0.09c0.5,0,0.99,0.15,1.43,0.42
					c0.64,0.4,1.09,1.05,1.27,1.83C201.97,103.97,201.86,104.78,201.48,105.45z"/>
				<path class="st2" d="M214.6,104.22c2.15-0.57,3.46-2.89,2.92-5.18c-0.54-2.28-2.73-3.68-4.87-3.11l-0.6,0.16
					c-0.59-1.11-1.3-2.13-2.13-3.05l0.32-0.57c0.55-0.97,0.71-2.13,0.45-3.23c-0.26-1.1-0.91-2.04-1.83-2.62
					c-0.92-0.59-2-0.76-3.04-0.49c-1.04,0.28-1.92,0.97-2.47,1.94l-0.32,0.57c-1.16-0.34-2.34-0.53-3.53-0.56l-0.15-0.65
					c-0.53-2.28-2.72-3.67-4.87-3.1c-2.15,0.57-3.47,2.89-2.93,5.17l0.15,0.64c-1.04,0.63-2,1.38-2.87,2.26l-0.53-0.34
					c-0.92-0.58-2-0.76-3.04-0.48c-1.04,0.28-1.92,0.97-2.48,1.95c-0.55,0.98-0.72,2.13-0.46,3.23c0.26,1.1,0.91,2.04,1.83,2.62
					l0.53,0.34c-0.32,1.23-0.49,2.48-0.53,3.75l-0.61,0.16c-1.04,0.27-1.92,0.96-2.47,1.94c-0.55,0.98-0.72,2.12-0.46,3.23
					c0.53,2.28,2.72,3.68,4.87,3.11l0.6-0.16c0.59,1.1,1.3,2.13,2.13,3.05l-0.32,0.57c-0.55,0.97-0.71,2.12-0.45,3.22
					c0.26,1.11,0.91,2.04,1.83,2.63c0.92,0.59,2,0.76,3.05,0.48c1.04-0.27,1.91-0.96,2.47-1.94l0.32-0.56
					c1.16,0.34,2.34,0.53,3.53,0.56l0.15,0.64c0.26,1.11,0.91,2.04,1.83,2.63c0.63,0.4,1.34,0.6,2.06,0.6
					c0.33,0,0.65-0.04,0.98-0.12c1.05-0.28,1.93-0.97,2.48-1.95c0.55-0.97,0.71-2.12,0.46-3.22l-0.15-0.64
					c1.04-0.63,2-1.39,2.87-2.26l0.53,0.34c0.92,0.59,2,0.76,3.04,0.48c1.04-0.27,1.92-0.97,2.47-1.94
					c0.56-0.98,0.72-2.13,0.46-3.24c-0.26-1.11-0.91-2.04-1.83-2.63l-0.53-0.34c0.32-1.22,0.49-2.48,0.53-3.75L214.6,104.22z
					 M212.38,101.97c-0.6,0.16-1.01,0.74-0.98,1.4c0.07,1.68-0.16,3.34-0.69,4.92c-0.2,0.62,0.03,1.31,0.55,1.64l1.41,0.9
					c0.33,0.21,0.56,0.54,0.65,0.93c0.09,0.39,0.03,0.81-0.17,1.15c-0.19,0.35-0.51,0.59-0.88,0.69c-0.38,0.1-0.75,0.04-1.08-0.17
					l-1.41-0.9c-0.53-0.33-1.21-0.23-1.62,0.25c-1.07,1.24-2.34,2.24-3.77,2.97c-0.55,0.28-0.85,0.93-0.7,1.57l0.4,1.69
					c0.09,0.4,0.03,0.81-0.16,1.15c-0.2,0.34-0.51,0.59-0.88,0.68c-0.37,0.1-0.75,0.04-1.08-0.17c-0.33-0.21-0.56-0.54-0.65-0.93
					l-0.4-1.69c-0.15-0.61-0.66-1.04-1.26-1.04c-0.02,0-0.04,0-0.05,0c-1.58,0.08-3.14-0.18-4.64-0.74
					c-0.58-0.22-1.23,0.03-1.54,0.59l-0.85,1.49c-0.19,0.35-0.5,0.59-0.87,0.69c-0.37,0.1-0.75,0.03-1.09-0.18
					c-0.32-0.21-0.55-0.54-0.65-0.93c-0.09-0.4-0.04-0.81,0.16-1.15l0.85-1.49c0.32-0.56,0.22-1.28-0.24-1.72
					c-1.17-1.14-2.11-2.49-2.79-4.01c-0.26-0.59-0.88-0.9-1.48-0.74l-1.59,0.43c-0.78,0.2-1.54-0.29-1.73-1.11
					c-0.09-0.4-0.04-0.81,0.16-1.15c0.19-0.35,0.5-0.59,0.87-0.69l1.59-0.42c0.6-0.16,1.01-0.74,0.98-1.4
					c-0.07-1.68,0.16-3.34,0.69-4.93c0.21-0.62-0.03-1.3-0.55-1.63l-1.41-0.9c-0.33-0.21-0.56-0.54-0.65-0.93
					c-0.09-0.39-0.03-0.8,0.16-1.15c0.2-0.35,0.51-0.59,0.88-0.69c0.37-0.1,0.75-0.04,1.08,0.17l1.41,0.89
					c0.53,0.34,1.2,0.24,1.62-0.24c1.07-1.25,2.34-2.24,3.77-2.97c0.56-0.28,0.85-0.94,0.7-1.58l-0.4-1.68
					c-0.19-0.81,0.28-1.63,1.04-1.84c0.76-0.2,1.54,0.3,1.73,1.11l0.4,1.69c0.15,0.63,0.71,1.05,1.31,1.04
					c1.58-0.08,3.14,0.17,4.64,0.74c0.58,0.21,1.22-0.03,1.54-0.59l0.84-1.49c0.2-0.35,0.51-0.59,0.88-0.69
					c0.37-0.1,0.75-0.03,1.09,0.18c0.33,0.2,0.56,0.54,0.65,0.93c0.09,0.39,0.03,0.8-0.16,1.15l-0.84,1.49
					c-0.32,0.56-0.22,1.28,0.24,1.72c1.17,1.14,2.11,2.48,2.79,4c0.26,0.59,0.88,0.9,1.48,0.75l1.59-0.43
					c0.78-0.2,1.54,0.28,1.73,1.11c0.19,0.81-0.27,1.63-1.04,1.84L212.38,101.97z"/>
				<path class="st2" d="M170.63,77.45c-2.05-1.58-4.92-1.09-6.4,1.08c-0.72,1.05-1.01,2.34-0.82,3.62
					c0.19,1.29,0.84,2.41,1.83,3.18c0.81,0.63,1.76,0.93,2.69,0.93c1.42,0,2.82-0.7,3.71-2v0
					C173.13,82.08,172.67,79.03,170.63,77.45z M169.55,82.64c-0.65,0.95-1.89,1.15-2.79,0.47c-0.43-0.34-0.71-0.82-0.79-1.38
					c-0.09-0.56,0.04-1.12,0.36-1.58c0.39-0.57,0.99-0.87,1.62-0.87c0.4,0,0.81,0.13,1.17,0.4
					C169.99,80.36,170.19,81.7,169.55,82.64z"/>
				<path class="st2" d="M181.13,88.33c-0.14-0.97-0.64-1.83-1.39-2.41l-0.25-0.19c0.29-0.86,0.48-1.73,0.6-2.64l0.3-0.05
					c0.92-0.16,1.73-0.68,2.28-1.48c0.54-0.8,0.77-1.78,0.62-2.76c-0.3-2.01-2.1-3.39-3.99-3.08l-0.3,0.06
					c-0.37-0.82-0.82-1.59-1.33-2.31l0.18-0.26c0.55-0.8,0.77-1.78,0.62-2.75c-0.15-0.97-0.64-1.84-1.39-2.42
					c-0.76-0.58-1.68-0.82-2.59-0.66c-0.92,0.15-1.72,0.68-2.27,1.48l-0.18,0.26c-0.81-0.3-1.64-0.51-2.48-0.63l-0.05-0.32
					c-0.3-2.02-2.1-3.39-3.99-3.07c-0.92,0.16-1.73,0.68-2.28,1.48c-0.55,0.79-0.77,1.77-0.62,2.75l0.05,0.32
					c-0.77,0.39-1.5,0.87-2.17,1.42l-0.25-0.19c-1.55-1.2-3.74-0.83-4.86,0.82c-0.55,0.81-0.77,1.79-0.63,2.77
					c0.15,0.97,0.64,1.82,1.39,2.41l0.25,0.19c-0.28,0.86-0.48,1.73-0.59,2.64l-0.31,0.05c-1.89,0.32-3.19,2.22-2.89,4.24
					c0.3,2.02,2.1,3.39,3.98,3.08l0.31-0.05c0.36,0.82,0.81,1.59,1.33,2.31l-0.18,0.26c-1.13,1.66-0.78,3.97,0.77,5.17
					c1.56,1.2,3.74,0.83,4.87-0.82l0.18-0.26c0.8,0.3,1.63,0.51,2.48,0.63l0.05,0.32c0.15,0.97,0.64,1.84,1.39,2.41
					c0.6,0.47,1.31,0.71,2.04,0.71c0.18,0,0.37-0.02,0.55-0.05c1.9-0.32,3.2-2.22,2.9-4.24l-0.05-0.32c0.77-0.39,1.5-0.86,2.18-1.42
					l0.24,0.19c0.75,0.58,1.67,0.82,2.59,0.66c0.92-0.16,1.73-0.68,2.27-1.48C181.06,90.29,181.28,89.31,181.13,88.33z
					 M177.15,87.33l1.07,0.83c0.2,0.14,0.32,0.37,0.36,0.62c0.04,0.25-0.02,0.5-0.16,0.71c-0.14,0.21-0.35,0.34-0.59,0.38
					c-0.23,0.04-0.47-0.02-0.66-0.17l-1.06-0.82c-0.5-0.39-1.18-0.35-1.64,0.1c-0.91,0.89-1.97,1.57-3.13,2.04
					c-0.57,0.23-0.92,0.86-0.83,1.5l0.21,1.39c0.08,0.53-0.25,1-0.75,1.09c-0.24,0.04-0.48-0.02-0.67-0.17
					c-0.19-0.16-0.32-0.37-0.36-0.63l-0.21-1.38c-0.1-0.65-0.61-1.13-1.22-1.16c-1.25-0.06-2.45-0.36-3.57-0.91
					c-0.18-0.08-0.36-0.12-0.54-0.12c-0.4,0-0.8,0.2-1.04,0.57l-0.78,1.14c-0.3,0.43-0.84,0.52-1.25,0.2c-0.4-0.3-0.49-0.9-0.2-1.32
					l0.78-1.14c0.36-0.53,0.32-1.26-0.09-1.74c-0.84-0.97-1.49-2.09-1.92-3.32c-0.22-0.61-0.81-0.97-1.42-0.88l-1.31,0.22
					c-0.5,0.09-0.94-0.26-1.02-0.79c-0.08-0.52,0.26-1.01,0.74-1.09l1.31-0.22c0.61-0.11,1.06-0.65,1.09-1.3
					c0.05-1.32,0.34-2.6,0.86-3.79c0.26-0.6,0.08-1.3-0.42-1.68l-1.07-0.82c-0.2-0.15-0.32-0.37-0.36-0.62
					c-0.04-0.25,0.02-0.5,0.16-0.7c0.29-0.43,0.85-0.52,1.25-0.21l1.07,0.82c0.5,0.39,1.18,0.35,1.64-0.1
					c0.92-0.89,1.97-1.58,3.13-2.04c0.58-0.23,0.93-0.85,0.83-1.5l-0.2-1.39c-0.04-0.25,0.02-0.5,0.16-0.71
					c0.14-0.2,0.35-0.34,0.59-0.38c0.49-0.08,0.95,0.28,1.02,0.79l0.21,1.38c0.1,0.65,0.61,1.14,1.22,1.16
					c1.24,0.06,2.44,0.36,3.57,0.91c0.56,0.27,1.22,0.09,1.58-0.44l0.78-1.14c0.14-0.2,0.35-0.33,0.58-0.37
					c0.24-0.04,0.48,0.02,0.67,0.17c0.19,0.15,0.32,0.37,0.36,0.62c0.04,0.25-0.02,0.5-0.16,0.71l-0.77,1.14
					c-0.36,0.53-0.32,1.25,0.09,1.74c0.84,0.97,1.48,2.09,1.92,3.32c0.21,0.62,0.82,0.98,1.41,0.88l1.3-0.22
					c0.5-0.09,0.94,0.27,1.02,0.79c0.04,0.25-0.02,0.5-0.16,0.71c-0.14,0.21-0.35,0.34-0.59,0.38l-1.3,0.22
					c-0.61,0.1-1.07,0.64-1.09,1.3c-0.05,1.32-0.34,2.59-0.86,3.79C176.48,86.24,176.65,86.95,177.15,87.33z"/>
				<rect x="72.21" y="139.2" class="st2" width="77.1" height="8.18"/>
				<path class="st2" d="M150.74,83.17l-18.2-19.42l-41.05,40.5v22.66h21.06L150.74,83.17z M132.96,74.81l6.78,7.19l-5.28,5.96
					l-7.07-7.51L132.96,74.81z M99.2,118.73v-11.01l21.99-21.62l7.67,8.99l-19.61,23.65H99.2z"/>
				<g>
					<path class="st2" d="M113.42,93.74H86.93c-0.27,3.44-1.16,6.7-2.55,9.65h19.23L113.42,93.74z"/>
					<path class="st2" d="M173.3,178.6l-8.74-23.18v-17.88c-0.68,0.6-1.53,0.98-2.48,0.98c-2.14,0-3.89-1.85-3.89-4.13v-0.58
						c-0.94-0.27-1.83-0.66-2.7-1.14v18.84H64.8V117.8c-0.86,0.1-1.74,0.15-2.63,0.15c-2.22,0-4.38-0.32-6.43-0.9v38.37l-8.75,23.18
						c-0.56,1.49-0.38,3.18,0.46,4.52c0.84,1.31,2.25,2.12,3.75,2.12h117.89c1.51,0,2.91-0.8,3.75-2.12
						C173.69,181.78,173.86,180.09,173.3,178.6z M57.89,175.6l5.45-14.47h93.62l5.43,14.47H57.89z"/>
				</g>
				<path class="st2" d="M87.02,91.55c0-14.54-11.15-26.38-24.85-26.38c-13.7,0-24.85,11.84-24.85,26.38
					c0,14.56,11.15,26.4,24.85,26.4C75.87,117.95,87.02,106.11,87.02,91.55z M50.39,91.55h10v22.33
					c-5.59-1.64-10.02-10.86-10.02-21.61C50.37,92.04,50.39,91.79,50.39,91.55z M73.97,92.27c0,10.75-4.44,19.97-10.03,21.61V91.55
					h10C73.95,91.79,73.97,92.04,73.97,92.27z M63.94,87.78V70.66c4.8,1.41,8.73,8.38,9.76,17.12H63.94z M60.39,70.66v17.12h-9.75
					C51.66,79.04,55.61,72.07,60.39,70.66z M72.56,111.27c3.06-4.66,4.96-11.38,4.96-19c0-0.24-0.02-0.48-0.02-0.72h5.98
					C83.47,100.02,79.06,107.4,72.56,111.27z M83.15,87.78h-5.88c-0.72-7.11-3.12-13.14-6.54-16.93
					C77.18,73.88,81.94,80.19,83.15,87.78z M53.6,70.86c-3.42,3.78-5.82,9.82-6.54,16.93h-5.87C42.4,80.19,47.16,73.88,53.6,70.86z
					 M40.87,91.55h5.97c0,0.24-0.02,0.48-0.02,0.72c0,7.62,1.9,14.34,4.96,19C45.28,107.4,40.87,100.02,40.87,91.55z"/>
			</g>
		</g>
		<path class="st3" d="M151.83,103.38v2.46c0.86-0.48,1.76-0.87,2.7-1.15v-0.58c0-2.27,1.74-4.12,3.89-4.12
			c0.95,0,1.81,0.38,2.48,0.98v-2.41c0-2.67-2.03-4.82-4.54-4.82h-32.31l1.15,1.35l-6.88,8.29H151.83z"/>
		<g>
			<path class="st3" d="M158.41,113.75c-2.86,0-5.18,2.47-5.18,5.5c0,3.03,2.32,5.5,5.18,5.5c2.86,0,5.18-2.47,5.18-5.5
				C163.59,116.22,161.27,113.75,158.41,113.75z M158.41,122c-1.43,0-2.59-1.23-2.59-2.75c0-1.52,1.16-2.75,2.59-2.75
				c1.43,0,2.59,1.23,2.59,2.75C161,120.77,159.84,122,158.41,122z"/>
			<path class="st3" d="M172.66,115.13h-0.54c-0.3-1.14-0.73-2.23-1.27-3.26l0.38-0.4c1.52-1.61,1.52-4.23,0-5.83
				c-0.73-0.78-1.71-1.21-2.75-1.21c0,0,0,0,0,0c-1.03,0-2.01,0.43-2.74,1.21l-0.38,0.41c-0.97-0.58-1.99-1.03-3.06-1.35v-0.58
				c0-2.27-1.74-4.12-3.89-4.12c-2.14,0-3.89,1.85-3.89,4.12v0.58c-1.07,0.32-2.09,0.77-3.06,1.35l-0.38-0.4
				c-1.51-1.61-3.98-1.61-5.49,0c-0.73,0.78-1.14,1.82-1.14,2.92c0,1.1,0.41,2.13,1.14,2.91l0.38,0.4
				c-0.54,1.03-0.97,2.12-1.27,3.26h-0.54c-2.14,0-3.88,1.85-3.88,4.13c0,2.28,1.74,4.12,3.88,4.12h0.54
				c0.3,1.13,0.72,2.22,1.27,3.25l-0.38,0.41c-1.52,1.61-1.51,4.22,0,5.83c0.74,0.78,1.71,1.21,2.75,1.21c0,0,0,0,0,0
				c1.03,0,2.01-0.42,2.74-1.21l0.38-0.4c0.97,0.58,1.99,1.03,3.06,1.34v0.58c0,2.28,1.74,4.13,3.89,4.13
				c2.14,0,3.89-1.85,3.89-4.13v-0.58c1.07-0.31,2.09-0.77,3.06-1.34l0.38,0.4c1.52,1.61,3.98,1.61,5.49,0
				c0.74-0.78,1.14-1.83,1.14-2.92c0-1.1-0.41-2.13-1.14-2.91l-0.38-0.41c0.54-1.03,0.97-2.12,1.27-3.25h0.54
				c2.14,0,3.88-1.85,3.88-4.12C176.55,116.98,174.8,115.13,172.66,115.13z M172.66,120.63h-1.56c-0.62,0-1.15,0.46-1.27,1.11
				c-0.3,1.56-0.87,3.02-1.7,4.34c-0.34,0.55-0.27,1.28,0.16,1.73l1.1,1.18c0.24,0.26,0.38,0.6,0.38,0.96
				c0,0.37-0.13,0.72-0.38,0.97c-0.5,0.54-1.32,0.54-1.83,0.01l-1.1-1.17c-0.44-0.46-1.12-0.54-1.63-0.18
				c-1.25,0.88-2.63,1.49-4.09,1.8c-0.61,0.13-1.04,0.69-1.04,1.36v1.65c0,0.77-0.57,1.37-1.29,1.37c-0.72,0-1.29-0.62-1.29-1.37
				v-1.65c0-0.66-0.44-1.22-1.04-1.36c-1.46-0.31-2.84-0.92-4.09-1.8c-0.22-0.15-0.47-0.23-0.71-0.23c-0.34,0-0.67,0.13-0.92,0.4
				l-1.1,1.17c-0.24,0.26-0.57,0.4-0.91,0.4l0,0c-0.34,0-0.67-0.14-0.92-0.41c-0.5-0.54-0.5-1.4,0-1.94l1.1-1.17
				c0.44-0.46,0.5-1.19,0.16-1.73c-0.83-1.33-1.4-2.79-1.7-4.34c-0.13-0.64-0.65-1.11-1.27-1.11h-1.56c-0.71,0-1.29-0.62-1.29-1.37
				c0-0.76,0.58-1.38,1.29-1.38h1.56c0.62,0,1.15-0.46,1.27-1.1c0.3-1.56,0.86-3.02,1.7-4.35c0.34-0.54,0.27-1.27-0.16-1.73
				l-1.1-1.18c-0.25-0.26-0.38-0.6-0.38-0.96c0-0.37,0.14-0.72,0.38-0.97c0.5-0.54,1.32-0.54,1.83-0.01l1.1,1.17
				c0.44,0.47,1.12,0.54,1.63,0.17c1.25-0.88,2.63-1.48,4.09-1.8c0.61-0.13,1.04-0.69,1.04-1.35v-1.66c0-0.77,0.57-1.36,1.29-1.36
				c0.72,0,1.29,0.61,1.29,1.36v1.66c0,0.65,0.43,1.22,1.04,1.35c1.47,0.32,2.84,0.92,4.09,1.8c0.51,0.37,1.19,0.29,1.63-0.17
				l1.11-1.18c0.24-0.26,0.57-0.4,0.91-0.4c0,0,0,0,0,0c0.34,0,0.67,0.15,0.92,0.42c0.5,0.53,0.5,1.4,0,1.94l-1.1,1.18
				c-0.44,0.46-0.5,1.19-0.16,1.73c0.83,1.33,1.4,2.79,1.7,4.35c0.12,0.65,0.65,1.1,1.27,1.1h1.56c0.71,0,1.29,0.62,1.29,1.38
				C173.96,120.01,173.38,120.63,172.66,120.63z"/>
			<path class="st3" d="M198.19,99.02c-1.23-0.78-2.67-1.02-4.07-0.65c-1.39,0.37-2.57,1.3-3.31,2.61
				c-0.74,1.31-0.96,2.84-0.61,4.33c0.61,2.59,2.81,4.34,5.23,4.34c0.43,0,0.86-0.05,1.3-0.17c2.88-0.77,4.64-3.87,3.92-6.93
				C200.29,101.06,199.42,99.81,198.19,99.02z M197.81,105.45c-0.39,0.68-1,1.16-1.72,1.35c-1.49,0.39-3.01-0.57-3.38-2.16
				c-0.18-0.77-0.07-1.57,0.32-2.24c0.38-0.68,0.99-1.16,1.72-1.35c0.22-0.06,0.46-0.09,0.68-0.09c0.5,0,0.99,0.15,1.43,0.42
				c0.64,0.4,1.09,1.05,1.27,1.83C198.31,103.97,198.2,104.78,197.81,105.45z"/>
			<path class="st3" d="M210.94,104.22c2.15-0.57,3.46-2.89,2.92-5.18c-0.54-2.28-2.73-3.68-4.87-3.11l-0.6,0.16
				c-0.59-1.11-1.3-2.13-2.13-3.05l0.32-0.57c0.55-0.97,0.71-2.13,0.45-3.23c-0.26-1.1-0.91-2.04-1.83-2.62
				c-0.92-0.59-2-0.76-3.04-0.49c-1.04,0.28-1.92,0.97-2.47,1.94l-0.32,0.57c-1.16-0.34-2.34-0.53-3.53-0.56l-0.15-0.65
				c-0.53-2.28-2.72-3.67-4.87-3.1c-2.15,0.57-3.47,2.89-2.93,5.17l0.15,0.64c-1.04,0.63-2,1.38-2.87,2.26l-0.53-0.34
				c-0.92-0.58-2-0.76-3.04-0.48c-1.04,0.28-1.92,0.97-2.48,1.95c-0.55,0.98-0.72,2.13-0.46,3.23c0.26,1.1,0.91,2.04,1.83,2.62
				l0.53,0.34c-0.32,1.23-0.49,2.48-0.53,3.75l-0.61,0.16c-1.04,0.27-1.92,0.96-2.47,1.94c-0.55,0.98-0.72,2.12-0.46,3.23
				c0.53,2.28,2.72,3.68,4.87,3.11l0.6-0.16c0.59,1.1,1.3,2.13,2.13,3.05l-0.32,0.57c-0.55,0.97-0.71,2.12-0.45,3.22
				c0.26,1.11,0.91,2.04,1.83,2.63c0.92,0.59,2,0.76,3.05,0.48c1.04-0.27,1.91-0.96,2.47-1.94l0.32-0.56
				c1.16,0.34,2.34,0.53,3.53,0.56l0.15,0.64c0.26,1.11,0.91,2.04,1.83,2.63c0.63,0.4,1.34,0.6,2.06,0.6c0.33,0,0.65-0.04,0.98-0.12
				c1.05-0.28,1.93-0.97,2.48-1.95c0.55-0.97,0.71-2.12,0.46-3.22l-0.15-0.64c1.04-0.63,2-1.39,2.87-2.26l0.53,0.34
				c0.92,0.59,2,0.76,3.04,0.48c1.04-0.27,1.92-0.97,2.47-1.94c0.56-0.98,0.72-2.13,0.46-3.24c-0.26-1.11-0.91-2.04-1.83-2.63
				l-0.53-0.34c0.32-1.22,0.5-2.48,0.53-3.75L210.94,104.22z M208.72,101.97c-0.6,0.16-1.01,0.74-0.98,1.4
				c0.07,1.68-0.16,3.34-0.69,4.92c-0.2,0.62,0.03,1.31,0.55,1.64l1.41,0.9c0.33,0.21,0.56,0.54,0.65,0.93
				c0.09,0.39,0.03,0.81-0.17,1.15c-0.19,0.35-0.51,0.59-0.88,0.69c-0.38,0.1-0.75,0.04-1.08-0.17l-1.41-0.9
				c-0.53-0.33-1.21-0.23-1.62,0.25c-1.07,1.24-2.34,2.24-3.77,2.97c-0.55,0.28-0.85,0.93-0.7,1.57l0.4,1.69
				c0.09,0.4,0.03,0.81-0.16,1.15c-0.2,0.34-0.51,0.59-0.88,0.68c-0.37,0.1-0.75,0.04-1.08-0.17c-0.33-0.21-0.56-0.54-0.65-0.93
				l-0.4-1.69c-0.15-0.61-0.66-1.04-1.26-1.04c-0.02,0-0.04,0-0.05,0c-1.58,0.08-3.14-0.18-4.64-0.74
				c-0.58-0.22-1.23,0.03-1.54,0.59l-0.85,1.49c-0.19,0.35-0.5,0.59-0.87,0.69c-0.37,0.1-0.75,0.03-1.09-0.18
				c-0.32-0.21-0.55-0.54-0.65-0.93c-0.09-0.4-0.04-0.81,0.16-1.15l0.85-1.49c0.32-0.56,0.22-1.28-0.24-1.72
				c-1.17-1.14-2.11-2.49-2.79-4.01c-0.26-0.59-0.88-0.9-1.48-0.74l-1.59,0.43c-0.78,0.2-1.54-0.29-1.73-1.11
				c-0.09-0.4-0.04-0.81,0.16-1.15c0.19-0.35,0.5-0.59,0.87-0.69l1.59-0.42c0.6-0.16,1.01-0.74,0.98-1.4
				c-0.07-1.68,0.16-3.34,0.69-4.93c0.21-0.62-0.03-1.3-0.55-1.63l-1.41-0.9c-0.33-0.21-0.56-0.54-0.65-0.93
				c-0.09-0.39-0.03-0.8,0.16-1.15c0.2-0.35,0.51-0.59,0.88-0.69c0.37-0.1,0.75-0.04,1.08,0.17l1.41,0.89
				c0.53,0.34,1.2,0.24,1.62-0.24c1.07-1.25,2.34-2.24,3.77-2.97c0.56-0.28,0.85-0.94,0.7-1.58l-0.4-1.68
				c-0.19-0.81,0.28-1.63,1.04-1.84c0.76-0.2,1.54,0.3,1.73,1.11l0.4,1.69c0.15,0.63,0.71,1.05,1.31,1.04
				c1.58-0.08,3.14,0.17,4.64,0.74c0.58,0.21,1.22-0.03,1.54-0.59l0.84-1.49c0.2-0.35,0.51-0.59,0.88-0.69
				c0.37-0.1,0.75-0.03,1.09,0.18c0.33,0.2,0.56,0.54,0.65,0.93c0.09,0.39,0.03,0.8-0.16,1.15l-0.84,1.49
				c-0.32,0.56-0.22,1.28,0.24,1.72c1.17,1.14,2.11,2.48,2.79,4c0.26,0.59,0.88,0.9,1.48,0.75l1.59-0.43
				c0.78-0.2,1.54,0.28,1.73,1.11c0.19,0.81-0.27,1.63-1.04,1.84L208.72,101.97z"/>
			<path class="st3" d="M166.97,77.45c-2.05-1.58-4.92-1.09-6.4,1.08c-0.72,1.05-1.01,2.34-0.82,3.62c0.19,1.29,0.84,2.41,1.83,3.18
				c0.81,0.63,1.76,0.93,2.69,0.93c1.42,0,2.82-0.7,3.71-2v0C169.46,82.08,169.01,79.03,166.97,77.45z M165.88,82.64
				c-0.65,0.95-1.89,1.15-2.79,0.47c-0.43-0.34-0.71-0.82-0.79-1.38c-0.09-0.56,0.04-1.12,0.36-1.58c0.39-0.57,0.99-0.87,1.62-0.87
				c0.4,0,0.81,0.13,1.17,0.4C166.33,80.36,166.53,81.7,165.88,82.64z"/>
			<path class="st3" d="M177.47,88.33c-0.14-0.97-0.64-1.83-1.39-2.41l-0.25-0.19c0.29-0.86,0.48-1.73,0.6-2.64l0.3-0.05
				c0.92-0.16,1.73-0.68,2.28-1.48c0.54-0.8,0.77-1.78,0.62-2.76c-0.3-2.01-2.1-3.39-3.99-3.08l-0.3,0.06
				c-0.37-0.82-0.82-1.59-1.33-2.31l0.18-0.26c0.55-0.8,0.77-1.78,0.62-2.75c-0.15-0.97-0.64-1.84-1.39-2.42
				c-0.76-0.58-1.68-0.82-2.59-0.66c-0.92,0.15-1.72,0.68-2.27,1.48l-0.18,0.26c-0.81-0.3-1.64-0.51-2.48-0.63l-0.05-0.32
				c-0.3-2.02-2.1-3.39-3.99-3.07c-0.92,0.16-1.73,0.68-2.28,1.48c-0.55,0.79-0.77,1.77-0.62,2.75l0.05,0.32
				c-0.77,0.39-1.5,0.87-2.17,1.42l-0.25-0.19c-1.55-1.2-3.74-0.83-4.86,0.82c-0.55,0.81-0.77,1.79-0.63,2.77
				c0.15,0.97,0.64,1.82,1.39,2.41l0.25,0.19c-0.28,0.86-0.48,1.73-0.59,2.64l-0.31,0.05c-1.89,0.32-3.19,2.22-2.89,4.24
				c0.3,2.02,2.1,3.39,3.98,3.08l0.31-0.05c0.36,0.82,0.81,1.59,1.33,2.31l-0.18,0.26c-1.13,1.66-0.78,3.97,0.77,5.17
				c1.56,1.2,3.74,0.83,4.87-0.82l0.18-0.26c0.8,0.3,1.63,0.51,2.48,0.63l0.05,0.32c0.15,0.97,0.64,1.84,1.39,2.41
				c0.6,0.47,1.31,0.71,2.04,0.71c0.18,0,0.37-0.02,0.55-0.05c1.9-0.32,3.2-2.22,2.9-4.24l-0.05-0.32c0.77-0.39,1.5-0.86,2.18-1.42
				l0.24,0.19c0.75,0.58,1.67,0.82,2.59,0.66c0.92-0.16,1.73-0.68,2.27-1.48C177.4,90.29,177.62,89.31,177.47,88.33z M173.49,87.33
				l1.07,0.83c0.2,0.14,0.32,0.37,0.36,0.62s-0.02,0.5-0.16,0.71c-0.14,0.21-0.35,0.34-0.59,0.38c-0.23,0.04-0.47-0.02-0.66-0.17
				l-1.06-0.82c-0.5-0.39-1.18-0.35-1.64,0.1c-0.91,0.89-1.97,1.57-3.13,2.04c-0.57,0.23-0.92,0.86-0.83,1.5l0.21,1.39
				c0.08,0.53-0.25,1-0.75,1.09c-0.24,0.04-0.48-0.02-0.67-0.17c-0.19-0.16-0.32-0.37-0.36-0.63l-0.21-1.38
				c-0.1-0.65-0.61-1.13-1.22-1.16c-1.25-0.06-2.45-0.36-3.57-0.91c-0.18-0.08-0.36-0.12-0.54-0.12c-0.4,0-0.8,0.2-1.04,0.57
				l-0.78,1.14c-0.3,0.43-0.84,0.52-1.25,0.2c-0.4-0.3-0.49-0.9-0.2-1.32l0.78-1.14c0.36-0.53,0.32-1.26-0.09-1.74
				c-0.84-0.97-1.49-2.09-1.92-3.32c-0.22-0.61-0.81-0.97-1.42-0.88l-1.31,0.22c-0.5,0.09-0.94-0.26-1.02-0.79
				c-0.08-0.52,0.26-1.01,0.74-1.09l1.31-0.22c0.61-0.11,1.06-0.65,1.09-1.3c0.05-1.32,0.34-2.6,0.86-3.79
				c0.26-0.6,0.08-1.3-0.42-1.68l-1.07-0.82c-0.2-0.15-0.32-0.37-0.36-0.62c-0.04-0.25,0.02-0.5,0.16-0.7
				c0.29-0.43,0.85-0.52,1.25-0.21l1.07,0.82c0.5,0.39,1.18,0.35,1.64-0.1c0.92-0.89,1.97-1.58,3.13-2.04
				c0.58-0.23,0.93-0.85,0.83-1.5l-0.2-1.39c-0.04-0.25,0.02-0.5,0.16-0.71c0.14-0.2,0.35-0.34,0.59-0.38
				c0.49-0.08,0.95,0.28,1.02,0.79l0.21,1.38c0.1,0.65,0.61,1.14,1.22,1.16c1.24,0.06,2.44,0.36,3.57,0.91
				c0.56,0.27,1.22,0.09,1.58-0.44l0.78-1.14c0.14-0.2,0.35-0.33,0.58-0.37c0.24-0.04,0.48,0.02,0.67,0.17
				c0.19,0.15,0.32,0.37,0.36,0.62c0.04,0.25-0.02,0.5-0.16,0.71l-0.77,1.14c-0.36,0.53-0.32,1.25,0.09,1.74
				c0.84,0.97,1.48,2.09,1.92,3.32c0.21,0.62,0.82,0.98,1.41,0.88l1.3-0.22c0.5-0.09,0.94,0.27,1.02,0.79
				c0.04,0.25-0.02,0.5-0.16,0.71c-0.14,0.21-0.35,0.34-0.59,0.38l-1.3,0.22c-0.61,0.1-1.07,0.64-1.09,1.3
				c-0.05,1.32-0.34,2.59-0.86,3.79C172.81,86.24,172.99,86.95,173.49,87.33z"/>
			<rect x="68.55" y="139.2" class="st3" width="77.1" height="8.18"/>
			<path class="st3" d="M147.08,83.17l-18.2-19.42l-41.05,40.5v22.66h21.06L147.08,83.17z M129.3,74.81l6.78,7.19l-5.28,5.96
				l-7.07-7.51L129.3,74.81z M95.53,118.73v-11.01l21.99-21.62l7.67,8.99l-19.61,23.65H95.53z"/>
			<g>
				<path class="st3" d="M109.76,93.74H83.27c-0.27,3.44-1.16,6.7-2.55,9.65h19.23L109.76,93.74z"/>
				<path class="st3" d="M169.64,178.6l-8.74-23.18v-17.88c-0.68,0.6-1.53,0.98-2.48,0.98c-2.14,0-3.89-1.85-3.89-4.13v-0.58
					c-0.94-0.27-1.83-0.66-2.7-1.14v18.84h-90.7V117.8c-0.86,0.1-1.74,0.15-2.63,0.15c-2.22,0-4.38-0.32-6.43-0.9v38.37l-8.75,23.18
					c-0.56,1.49-0.38,3.18,0.46,4.52c0.84,1.31,2.25,2.12,3.75,2.12h117.89c1.51,0,2.91-0.8,3.75-2.12
					C170.03,181.78,170.2,180.09,169.64,178.6z M54.23,175.6l5.45-14.47h93.62l5.43,14.47H54.23z"/>
			</g>
			<path class="st3" d="M83.36,91.55c0-14.54-11.15-26.38-24.85-26.38c-13.7,0-24.85,11.84-24.85,26.38
				c0,14.56,11.15,26.4,24.85,26.4C72.21,117.95,83.36,106.11,83.36,91.55z M46.73,91.55h10v22.33
				c-5.59-1.64-10.02-10.86-10.02-21.61C46.71,92.04,46.73,91.79,46.73,91.55z M70.31,92.27c0,10.75-4.44,19.97-10.03,21.61V91.55
				h10C70.29,91.79,70.31,92.04,70.31,92.27z M60.28,87.78V70.66c4.8,1.41,8.73,8.38,9.76,17.12H60.28z M56.73,70.66v17.12h-9.75
				C48,79.04,51.94,72.07,56.73,70.66z M68.9,111.27c3.06-4.66,4.96-11.38,4.96-19c0-0.24-0.02-0.48-0.02-0.72h5.98
				C79.81,100.02,75.4,107.4,68.9,111.27z M79.49,87.78h-5.88c-0.72-7.11-3.12-13.14-6.54-16.93
				C73.52,73.88,78.28,80.19,79.49,87.78z M49.94,70.86c-3.42,3.78-5.82,9.82-6.54,16.93h-5.87C38.74,80.19,43.5,73.88,49.94,70.86z
				 M37.21,91.55h5.97c0,0.24-0.02,0.48-0.02,0.72c0,7.62,1.9,14.34,4.96,19C41.62,107.4,37.21,100.02,37.21,91.55z"/>
		</g>
	</g>
</g>
</svg>
