<?xml version="1.0" encoding="utf-8"?>
<!-- Generator: Adobe Illustrator 24.3.0, SVG Export Plug-In . SVG Version: 6.00 Build 0)  -->
<svg version="1.1" xmlns="http://www.w3.org/2000/svg" xmlns:xlink="http://www.w3.org/1999/xlink" x="0px" y="0px"
	 viewBox="0 0 250 250" style="enable-background:new 0 0 250 250;" xml:space="preserve">
<style type="text/css">
	.st0{fill:#05194C;}
	.st1{fill:url(#SVGID_1_);}
	.st2{fill:#03123D;}
	.st3{fill:#FFFFFF;}
	.st4{fill:url(#SVGID_2_);}
	.st5{fill:url(#SVGID_3_);}
	.st6{fill:url(#SVGID_4_);}
	.st7{fill:url(#SVGID_5_);}
	.st8{fill:#1D1D1B;}
</style>
<g id="Capa_1">
</g>
<g id="Background">
	<g>
		<polygon class="st0" points="189.15,229.05 249,125.39 189.15,21.73 69.45,21.73 9.6,125.39 69.45,229.05 		"/>
		<radialGradient id="SVGID_1_" cx="120.7022" cy="124.6093" r="111.9707" gradientUnits="userSpaceOnUse">
			<stop  offset="0" style="stop-color:#006FFF"/>
			<stop  offset="0.1364" style="stop-color:#0068F1"/>
			<stop  offset="0.3955" style="stop-color:#0056CB"/>
			<stop  offset="0.7467" style="stop-color:#00388F"/>
			<stop  offset="1" style="stop-color:#002160"/>
		</radialGradient>
		<polygon class="st1" points="180.55,228.27 240.4,124.61 180.55,20.95 60.85,20.95 1,124.61 60.85,228.27 		"/>
		<g>
			<path class="st2" d="M112.96,193.52c1.61,0,2.92-1.32,2.92-2.93c0-1.62-1.31-2.93-2.92-2.93c-1.61,0-2.92,1.31-2.92,2.93
				C110.03,192.19,111.34,193.52,112.96,193.52z"/>
			<path class="st2" d="M112.96,199.36c4.85,0,8.77-3.94,8.77-8.78c0-4.84-3.93-8.79-8.77-8.79c-4.84,0-8.78,3.94-8.78,8.79
				C104.18,195.42,108.12,199.36,112.96,199.36z M112.96,187.66c1.61,0,2.92,1.31,2.92,2.93c0,1.61-1.31,2.93-2.92,2.93
				c-1.61,0-2.92-1.32-2.92-2.93C110.03,188.97,111.34,187.66,112.96,187.66z"/>
			<path class="st2" d="M186.11,105.73h-1.22c-0.68-2.4-1.64-4.73-2.87-6.92l0.86-0.87c3.43-3.41,3.43-8.97,0-12.4
				c-1.67-1.66-3.87-2.57-6.21-2.57c-0.01,0-0.01,0-0.01,0c-2.34,0-4.54,0.91-6.2,2.57l-0.86,0.86c-2.19-1.22-4.51-2.19-6.92-2.86
				v-1.22c0-3.8-2.45-7.01-5.85-8.23v-21c0-4.86-3.93-8.81-8.75-8.81H74.9c-4.83,0-8.76,3.95-8.76,8.8v119.95v5.77v20.56
				c0,4.84,3.93,8.77,8.76,8.77h73.19c4.83,0,8.75-3.93,8.75-8.77V178.8v-5.77v-18.1c3.4-1.2,5.85-4.42,5.85-8.22v-1.23
				c2.42-0.67,4.73-1.63,6.92-2.87l0.86,0.87c3.43,3.42,8.99,3.42,12.41-0.01c1.66-1.67,2.58-3.87,2.57-6.21
				c0-2.34-0.91-4.52-2.57-6.19l-0.86-0.86c1.23-2.19,2.18-4.51,2.87-6.92h1.22c4.83,0,8.77-3.93,8.77-8.77
				C194.88,109.66,190.94,105.73,186.11,105.73z M151,199.36c0,1.61-1.3,2.91-2.91,2.91H74.9c-1.63,0-2.91-1.27-2.91-2.91v-20.49h79
				V199.36z M72,53.08c0-1.62,1.3-2.94,2.91-2.94h73.19c1.63,0,2.91,1.3,2.91,2.95v21c-3.4,1.21-5.86,4.43-5.86,8.23v1.22
				c-2.41,0.67-4.72,1.64-6.92,2.86l-0.86-0.86c-3.43-3.43-8.99-3.42-12.41,0c-1.66,1.67-2.58,3.89-2.58,6.22
				c0,2.34,0.91,4.55,2.57,6.19l0.86,0.87c-1.22,2.19-2.18,4.51-2.86,6.92h-1.22c-4.83,0-8.77,3.93-8.77,8.78
				c0,4.84,3.94,8.77,8.77,8.77h1.22c0.68,2.41,1.64,4.74,2.86,6.92l-0.86,0.86c-3.42,3.43-3.42,8.99,0.01,12.41
				c1.66,1.66,3.87,2.58,6.21,2.58c0,0,0,0,0.01,0c2.33,0,4.53-0.92,6.2-2.57l0.86-0.87c2.19,1.24,4.51,2.19,6.92,2.87v1.23
				c0,3.81,2.45,7.02,5.86,8.22v18.03H72V53.08z M186.11,117.43h-3.52c-1.39,0-2.6,0.99-2.87,2.35c-0.67,3.31-1.96,6.43-3.84,9.25
				c-0.77,1.15-0.61,2.7,0.37,3.68l2.49,2.5c0.55,0.55,0.86,1.29,0.86,2.06c0,0.77-0.31,1.51-0.87,2.07c-1.13,1.13-2.98,1.14-4.13,0
				l-2.49-2.49c-0.99-0.98-2.53-1.14-3.69-0.37c-2.83,1.87-5.94,3.15-9.25,3.83c-1.36,0.28-2.35,1.48-2.35,2.87v3.53
				c0,1.63-1.29,2.9-2.92,2.9c-1.62,0-2.92-1.31-2.92-2.9v-3.53c0-1.39-0.98-2.59-2.35-2.87c-3.31-0.68-6.43-1.96-9.25-3.83
				c-0.49-0.33-1.05-0.49-1.62-0.49c-0.75,0-1.5,0.29-2.07,0.85l-2.49,2.5c-0.55,0.55-1.29,0.86-2.06,0.86l0,0
				c-0.78,0-1.52-0.31-2.08-0.87c-1.14-1.14-1.14-2.99,0-4.13l2.49-2.5c0.98-0.98,1.13-2.52,0.37-3.68
				c-1.87-2.82-3.17-5.94-3.84-9.25c-0.27-1.36-1.47-2.35-2.87-2.35h-3.52c-1.61,0-2.92-1.31-2.92-2.92c0-1.62,1.3-2.93,2.92-2.93
				h3.52c1.39,0,2.6-0.99,2.87-2.36c0.67-3.3,1.97-6.42,3.84-9.24c0.76-1.17,0.61-2.7-0.37-3.69l-2.49-2.5
				c-0.56-0.55-0.85-1.27-0.85-2.05c-0.01-0.78,0.3-1.52,0.85-2.07c1.14-1.14,2.99-1.14,4.13,0l2.49,2.48
				c0.99,1,2.53,1.14,3.69,0.38c2.82-1.88,5.94-3.16,9.25-3.83c1.36-0.29,2.35-1.48,2.35-2.88v-3.51c0-1.63,1.29-2.92,2.92-2.92
				c1.61,0,2.92,1.31,2.92,2.92v3.51c0,1.4,0.98,2.6,2.35,2.88c3.31,0.67,6.42,1.95,9.25,3.83c1.16,0.76,2.7,0.62,3.69-0.38
				l2.49-2.49c0.55-0.56,1.28-0.86,2.05-0.86c0,0,0,0,0.01,0c0.78,0,1.51,0.31,2.06,0.87c1.14,1.14,1.14,3,0.01,4.13l-2.49,2.49
				c-0.98,0.99-1.14,2.52-0.37,3.69c1.88,2.82,3.17,5.93,3.84,9.24c0.28,1.37,1.48,2.36,2.87,2.36h3.52c1.61,0,2.92,1.31,2.92,2.93
				C189.03,116.12,187.72,117.43,186.11,117.43z"/>
			<path class="st2" d="M153.92,102.81c-6.46,0-11.71,5.25-11.71,11.71c0,6.46,5.25,11.69,11.71,11.69c6.45,0,11.7-5.23,11.7-11.69
				C165.62,108.05,160.37,102.81,153.92,102.81z M153.92,120.36c-3.22,0-5.86-2.63-5.86-5.85c0-3.24,2.64-5.86,5.86-5.86
				c3.23,0,5.85,2.62,5.85,5.86C159.77,117.73,157.15,120.36,153.92,120.36z"/>
		</g>
		<g>
			<path class="st3" d="M111.34,190.95c1.61,0,2.92-1.32,2.92-2.93c0-1.62-1.31-2.93-2.92-2.93c-1.61,0-2.92,1.31-2.92,2.93
				C108.42,189.63,109.73,190.95,111.34,190.95z"/>
			<path class="st3" d="M111.34,196.79c4.85,0,8.77-3.94,8.77-8.78c0-4.84-3.93-8.79-8.77-8.79c-4.84,0-8.78,3.94-8.78,8.79
				C102.56,192.85,106.5,196.79,111.34,196.79z M111.34,185.09c1.61,0,2.92,1.31,2.92,2.93c0,1.61-1.31,2.93-2.92,2.93
				c-1.61,0-2.92-1.32-2.92-2.93C108.42,186.4,109.73,185.09,111.34,185.09z"/>
			<path class="st3" d="M184.5,103.17h-1.22c-0.68-2.4-1.64-4.73-2.87-6.92l0.86-0.87c3.43-3.41,3.43-8.97,0-12.4
				c-1.67-1.66-3.87-2.57-6.21-2.57c-0.01,0-0.01,0-0.01,0c-2.34,0-4.54,0.91-6.2,2.57L168,83.83c-2.19-1.22-4.51-2.19-6.92-2.86
				v-1.22c0-3.8-2.45-7.01-5.85-8.23v-21c0-4.86-3.93-8.81-8.75-8.81H73.29c-4.83,0-8.76,3.95-8.76,8.8v119.95v5.77v20.56
				c0,4.84,3.93,8.77,8.76,8.77h73.19c4.83,0,8.75-3.93,8.75-8.77v-20.56v-5.77v-18.1c3.4-1.2,5.85-4.42,5.85-8.22v-1.23
				c2.42-0.67,4.73-1.63,6.92-2.87l0.86,0.87c3.43,3.42,8.99,3.42,12.41-0.01c1.66-1.67,2.58-3.87,2.57-6.21
				c0-2.34-0.91-4.52-2.57-6.19l-0.86-0.86c1.23-2.19,2.18-4.51,2.87-6.92h1.22c4.83,0,8.77-3.93,8.77-8.77
				C193.26,107.09,189.33,103.17,184.5,103.17z M149.38,196.79c0,1.61-1.3,2.91-2.91,2.91H73.29c-1.63,0-2.91-1.27-2.91-2.91v-20.49
				h79V196.79z M70.38,50.51c0-1.62,1.3-2.94,2.91-2.94h73.19c1.63,0,2.91,1.3,2.91,2.95v21c-3.4,1.21-5.86,4.43-5.86,8.23v1.22
				c-2.41,0.67-4.72,1.64-6.92,2.86l-0.86-0.86c-3.43-3.43-8.99-3.42-12.41,0c-1.66,1.67-2.58,3.89-2.58,6.22
				c0,2.34,0.91,4.55,2.57,6.19l0.86,0.87c-1.22,2.19-2.18,4.51-2.86,6.92h-1.22c-4.83,0-8.77,3.93-8.77,8.78
				c0,4.84,3.94,8.77,8.77,8.77h1.22c0.68,2.41,1.64,4.74,2.86,6.92l-0.86,0.86c-3.42,3.43-3.42,8.99,0.01,12.41
				c1.66,1.66,3.87,2.58,6.21,2.58c0,0,0,0,0.01,0c2.33,0,4.53-0.92,6.2-2.57l0.86-0.87c2.19,1.24,4.51,2.19,6.92,2.87v1.23
				c0,3.81,2.45,7.02,5.86,8.22v18.03h-79V50.51z M184.5,114.87h-3.52c-1.39,0-2.6,0.99-2.87,2.35c-0.67,3.31-1.96,6.43-3.84,9.25
				c-0.77,1.15-0.61,2.7,0.37,3.68l2.49,2.5c0.55,0.55,0.86,1.29,0.86,2.06c0,0.77-0.31,1.51-0.87,2.07c-1.13,1.13-2.98,1.14-4.13,0
				l-2.49-2.49c-0.99-0.98-2.53-1.14-3.69-0.37c-2.83,1.87-5.94,3.15-9.25,3.83c-1.36,0.28-2.35,1.48-2.35,2.87v3.53
				c0,1.63-1.29,2.9-2.92,2.9c-1.62,0-2.92-1.31-2.92-2.9v-3.53c0-1.39-0.98-2.59-2.35-2.87c-3.31-0.68-6.43-1.96-9.25-3.83
				c-0.49-0.33-1.05-0.49-1.62-0.49c-0.75,0-1.5,0.29-2.07,0.85l-2.49,2.5c-0.55,0.55-1.29,0.86-2.06,0.86l0,0
				c-0.78,0-1.52-0.31-2.08-0.87c-1.14-1.14-1.14-2.99,0-4.13l2.49-2.5c0.98-0.98,1.13-2.52,0.37-3.68
				c-1.87-2.82-3.17-5.94-3.84-9.25c-0.27-1.36-1.47-2.35-2.87-2.35h-3.52c-1.61,0-2.92-1.31-2.92-2.92c0-1.62,1.3-2.93,2.92-2.93
				h3.52c1.39,0,2.6-0.99,2.87-2.36c0.67-3.3,1.97-6.42,3.84-9.24c0.76-1.17,0.61-2.7-0.37-3.69l-2.49-2.5
				c-0.56-0.55-0.85-1.27-0.85-2.05c-0.01-0.78,0.3-1.52,0.85-2.07c1.14-1.14,2.99-1.14,4.13,0l2.49,2.48
				c0.99,1,2.53,1.14,3.69,0.38c2.82-1.88,5.94-3.16,9.25-3.83c1.36-0.29,2.35-1.48,2.35-2.88v-3.51c0-1.63,1.29-2.92,2.92-2.92
				c1.61,0,2.92,1.31,2.92,2.92v3.51c0,1.4,0.98,2.6,2.35,2.88c3.31,0.67,6.42,1.95,9.25,3.83c1.16,0.76,2.7,0.62,3.69-0.38
				l2.49-2.49c0.55-0.56,1.28-0.86,2.05-0.86c0,0,0,0,0.01,0c0.78,0,1.51,0.31,2.06,0.87c1.14,1.14,1.14,3,0.01,4.13l-2.49,2.49
				c-0.98,0.99-1.14,2.52-0.37,3.69c1.88,2.82,3.17,5.93,3.84,9.24c0.28,1.37,1.48,2.36,2.87,2.36h3.52c1.61,0,2.92,1.31,2.92,2.93
				C187.41,113.56,186.1,114.87,184.5,114.87z"/>
			<path class="st3" d="M152.31,100.24c-6.46,0-11.71,5.25-11.71,11.71c0,6.46,5.25,11.69,11.71,11.69c6.45,0,11.7-5.23,11.7-11.69
				C164.01,105.49,158.76,100.24,152.31,100.24z M152.31,117.79c-3.22,0-5.86-2.63-5.86-5.85c0-3.24,2.64-5.86,5.86-5.86
				c3.23,0,5.85,2.62,5.85,5.86C158.15,115.16,155.53,117.79,152.31,117.79z"/>
		</g>
	</g>
</g>
</svg>
