<?xml version="1.0" encoding="utf-8"?>
<!-- Generator: Adobe Illustrator 24.3.0, SVG Export Plug-In . SVG Version: 6.00 Build 0)  -->
<svg version="1.1" xmlns="http://www.w3.org/2000/svg" xmlns:xlink="http://www.w3.org/1999/xlink" x="0px" y="0px"
	 viewBox="0 0 250 250" style="enable-background:new 0 0 250 250;" xml:space="preserve">
<style type="text/css">
	.st0{fill:#05194C;}
	.st1{fill:url(#SVGID_1_);}
	.st2{fill:#03123D;}
	.st3{fill:#FFFFFF;}
	.st4{fill:url(#SVGID_2_);}
	.st5{fill:url(#SVGID_3_);}
	.st6{fill:url(#SVGID_4_);}
	.st7{fill:url(#SVGID_5_);}
	.st8{fill:#1D1D1B;}
</style>
<g id="Capa_1">
</g>
<g id="Background">
	<g>
		<polygon class="st0" points="189.15,229.05 249,125.39 189.15,21.73 69.45,21.73 9.6,125.39 69.45,229.05 		"/>
		<radialGradient id="SVGID_1_" cx="120.7022" cy="124.6093" r="111.9707" gradientUnits="userSpaceOnUse">
			<stop  offset="0" style="stop-color:#006FFF"/>
			<stop  offset="0.1364" style="stop-color:#0068F1"/>
			<stop  offset="0.3955" style="stop-color:#0056CB"/>
			<stop  offset="0.7467" style="stop-color:#00388F"/>
			<stop  offset="1" style="stop-color:#002160"/>
		</radialGradient>
		<polygon class="st1" points="180.55,228.27 240.4,124.61 180.55,20.95 60.85,20.95 1,124.61 60.85,228.27 		"/>
		<g>
			<path class="st8" d="M163.79,173.95h-40.83v11.81h40.83V173.95z M128.54,180.17v-0.64h29.67v0.64H128.54z"/>
			<path class="st8" d="M82.21,184.71c1.54,0,2.79-1.25,2.79-2.79v-4.14c0-1.53-1.25-2.78-2.79-2.78c-1.54,0-2.79,1.25-2.79,2.78
				v4.14C79.42,183.46,80.67,184.71,82.21,184.71z"/>
			<path class="st8" d="M197.12,69.19c0.02-0.91-0.33-1.79-0.97-2.43l-10.84-10.84c-0.61-0.62-1.46-0.97-2.33-0.97l-0.09,0
				c-0.9,0.03-1.77,0.43-2.37,1.11l-20.08,22.51H82.22c-7.25,0-13.16,5.9-13.16,13.16v13.77c-1.4-0.66-2.95-0.8-4.45-0.4
				c-3.66,0.97-5.89,4.9-4.98,8.75l0.11,0.48c-1.3,0.82-2.52,1.79-3.66,2.87l-0.34-0.22c-1.58-1-3.43-1.29-5.21-0.82
				c-1.77,0.48-3.27,1.65-4.22,3.32c-0.93,1.66-1.21,3.6-0.77,5.45c0.45,1.88,1.55,3.45,3.11,4.44l0.38,0.24
				c-0.38,1.59-0.61,3.22-0.68,4.85l-0.41,0.11c-1.78,0.47-3.28,1.65-4.21,3.31c-0.94,1.65-1.21,3.59-0.77,5.45
				c0.45,1.91,1.64,3.57,3.27,4.55c1.54,0.93,3.33,1.19,5.05,0.73l0.38-0.1c0.79,1.4,1.71,2.71,2.73,3.91l-0.24,0.43
				c-0.93,1.64-1.2,3.57-0.76,5.44c0.44,1.86,1.54,3.44,3.11,4.46c1.59,1.01,3.44,1.3,5.22,0.82c1.77-0.46,3.27-1.63,4.22-3.31
				l0.21-0.37c1.46,0.39,2.96,0.63,4.47,0.71l0.1,0.45c0.44,1.86,1.54,3.44,3.11,4.45c1.06,0.68,2.28,1.04,3.54,1.04
				c0.57,0,1.13-0.07,1.68-0.21c0.95-0.25,1.81-0.71,2.56-1.32c0.21,0.01,0.42,0.03,0.64,0.03h28.31v2.71H69.06v12.12
				c0,6.68,5.43,12.11,12.1,12.11h80.88c6.68,0,12.11-5.43,12.11-12.11v-12.12h-39.39v-2.71H161c7.25,0,13.16-5.9,13.16-13.16V91.73
				c0-0.22-0.01-0.44-0.02-0.65l21.89-19.52C196.69,70.94,197.09,70.08,197.12,69.19z M70.43,154.94l-0.44-0.04
				c-1.41-0.15-2.82-0.49-4.2-1.01c-1.22-0.46-2.58,0.05-3.23,1.22l-1.3,2.28c-0.2,0.36-0.52,0.62-0.9,0.72
				c-0.36,0.1-0.74,0.04-1.09-0.19c-0.34-0.22-0.58-0.57-0.68-0.98c-0.1-0.43-0.04-0.87,0.17-1.24l1.3-2.28
				c0.64-1.13,0.43-2.61-0.49-3.5c-1.73-1.69-3.11-3.67-4.11-5.9c-0.55-1.23-1.82-1.86-3.1-1.53l-2.42,0.65
				c-0.37,0.1-0.74,0.04-1.06-0.15c-0.35-0.21-0.6-0.57-0.71-1.02c-0.1-0.43-0.04-0.87,0.18-1.25c0.2-0.36,0.52-0.62,0.89-0.72
				l2.43-0.64c1.23-0.33,2.09-1.53,2.03-2.85c-0.1-2.49,0.24-4.93,1.02-7.27c0.42-1.24-0.06-2.64-1.13-3.33l-2.16-1.38
				c-0.34-0.21-0.58-0.56-0.68-0.98c-0.1-0.42-0.04-0.87,0.18-1.25c0.2-0.36,0.52-0.61,0.91-0.71c0.37-0.1,0.75-0.04,1.08,0.17
				l2.15,1.37c1.1,0.7,2.53,0.49,3.4-0.51c1.57-1.83,3.43-3.29,5.53-4.36c1.14-0.57,1.75-1.92,1.45-3.21l-0.6-2.57
				c-0.21-0.86,0.28-1.74,1.08-1.95c0.35-0.09,0.72-0.04,1.04,0.15c0.36,0.21,0.62,0.58,0.72,1.01l0.61,2.58
				c0.12,0.52,0.4,0.97,0.75,1.33v0.05l0.29,0.21c0.07,0.06,0.16,0.1,0.24,0.15c0.03,0.02,0.07,0.04,0.1,0.06
				c0.1,0.05,0.2,0.09,0.3,0.13c0.04,0.02,0.08,0.04,0.12,0.05c0.12,0.04,0.23,0.07,0.35,0.09c0.03,0.01,0.05,0.01,0.08,0.02
				c0.12,0.02,0.23,0.03,0.35,0.03c0.03,0,0.07,0.01,0.1,0.01c0.02,0,0.04,0,0.05,0c0.43-0.02,0.86-0.02,1.29-0.01
				c0.06,0,0.12,0,0.18,0.01c0.44,0.02,0.88,0.05,1.31,0.1c1.37,0.16,2.71,0.49,4.02,0.99c1.21,0.45,2.57-0.07,3.22-1.22l1.29-2.28
				c0.2-0.36,0.51-0.61,0.9-0.72c0.13-0.04,0.27-0.04,0.4-0.03c0.13,0.44,0.35,0.85,0.69,1.2c0.21,0.21,0.45,0.37,0.71,0.5
				c-0.02,0.26-0.08,0.51-0.21,0.74l-1.29,2.28c-0.65,1.14-0.45,2.58,0.48,3.5c1.72,1.67,3.1,3.65,4.11,5.88
				c0.54,1.22,1.84,1.87,3.1,1.54l2.42-0.65c0.37-0.1,0.75-0.04,1.06,0.15c0.35,0.21,0.6,0.57,0.7,1.02
				c0.21,0.86-0.28,1.74-1.07,1.96l-2.43,0.64l0,0c-1.23,0.33-2.09,1.53-2.03,2.86c0.1,2.49-0.24,4.93-1.02,7.26
				c-0.42,1.27,0.05,2.64,1.14,3.33l2.14,1.37c0.35,0.22,0.59,0.57,0.69,0.98c0.1,0.42,0.03,0.87-0.18,1.25
				c-0.2,0.36-0.52,0.61-0.9,0.72c-0.37,0.1-0.75,0.04-1.08-0.17l-2.15-1.38c-1.11-0.69-2.54-0.47-3.4,0.52
				c-1.57,1.82-3.44,3.29-5.54,4.36c-1.13,0.57-1.74,1.91-1.44,3.19l0.61,2.58c0.05,0.2,0.06,0.41,0.03,0.61l-0.01,0.07
				c-0.02,0.1-0.04,0.2-0.07,0.3c-0.03,0.09-0.07,0.18-0.12,0.26c-0.05,0.09-0.11,0.17-0.18,0.25c-0.2,0.23-0.45,0.39-0.74,0.46
				c-0.02,0.01-0.05,0.01-0.07,0.01c-0.35,0.08-0.7,0.02-1.01-0.18c-0.34-0.21-0.58-0.56-0.68-0.98l-0.6-2.59
				c-0.17-0.74-0.62-1.34-1.2-1.72c-0.04-0.03-0.08-0.06-0.12-0.08c-0.01-0.01-0.02-0.01-0.03-0.01c-0.25-0.14-0.52-0.24-0.81-0.29
				c0,0-0.01,0-0.01,0c-0.15-0.03-0.3-0.04-0.45-0.04h0l0,0l-0.12,0c-0.34,0.02-0.69,0.02-1.05,0.02c-0.01,0-0.01,0-0.02,0
				C71.16,154.98,70.8,154.97,70.43,154.94z M84.01,157.56l-0.11-0.47c1.29-0.82,2.52-1.79,3.66-2.88l0.34,0.22
				c1.57,1,3.42,1.3,5.21,0.82c1.77-0.47,3.27-1.64,4.22-3.31c0.94-1.66,1.21-3.6,0.77-5.46c-0.44-1.87-1.54-3.45-3.11-4.45
				l-0.38-0.24c0.38-1.58,0.61-3.21,0.68-4.85l0.41-0.11c3.65-0.97,5.88-4.9,4.98-8.76c-0.46-1.94-1.62-3.55-3.27-4.54
				c-1.54-0.92-3.34-1.18-5.05-0.73l-0.38,0.1c-0.78-1.38-1.69-2.7-2.73-3.91l0.24-0.43c0.93-1.65,1.2-3.58,0.76-5.45
				c-0.04-0.16-0.09-0.32-0.14-0.48l15.83-15.82c0.53-0.53,0.82-1.23,0.82-1.97c0-0.75-0.29-1.45-0.82-1.98
				c-1.08-1.09-2.85-1.09-3.94,0l-15.46,15.46c-1.43-0.73-3.05-0.9-4.61-0.49c-1.77,0.47-3.27,1.64-4.21,3.31l-0.21,0.37
				c-0.94-0.25-1.9-0.43-2.88-0.56V91.73c0-4.18,3.4-7.58,7.58-7.58h73.24l-4.45,4.99c-9-3.79-19.59-1.73-26.51,5.2
				c-6.36,6.36-8.66,15.66-6.01,24.25c0.33,1.1,1.24,1.95,2.36,2.23c1.12,0.27,2.32-0.07,3.13-0.87l12.7-12.7l9.12,9.11l-12.7,12.71
				c-0.81,0.8-1.15,1.99-0.88,3.12c0.28,1.13,1.14,2.03,2.24,2.36c2.36,0.73,4.77,1.08,7.16,1.08c6.32,0,12.47-2.48,17.09-7.09
				c7.27-7.28,9.12-18.64,4.59-27.82l5.27-4.7v55.83c0,4.18-3.4,7.58-7.58,7.58H84.21C84.22,158.81,84.16,158.18,84.01,157.56z
				 M171.84,84.27l-1.81,1.62l-13.11,11.69l0,0c-1.21,1.08-1.45,2.91-0.57,4.26c4.52,6.93,3.55,16.2-2.3,22.04
				c-3.1,3.1-7.25,4.93-11.57,5.14l10.32-10.31c0.62-0.62,0.97-1.46,0.97-2.34c0-0.88-0.34-1.71-0.97-2.33l-13.79-13.79
				c-0.62-0.62-1.48-0.93-2.33-0.93c-0.86,0-1.71,0.31-2.34,0.93l-10.32,10.32c0.22-4.32,2.04-8.46,5.13-11.56
				c5.55-5.55,14.2-6.74,21.03-2.91c1.34,0.75,3.05,0.45,4.07-0.7l9.55-10.71l0,0l3.85-4.32l0,0l15.45-17.31l5.88,5.9L171.84,84.27
				L171.84,84.27z M116.1,167.73v-2.71h13.08v2.71H116.1z M168.57,173.3v6.55c0,3.61-2.93,6.54-6.53,6.54H81.16
				c-3.6,0-6.53-2.93-6.53-6.54v-6.55H168.57z"/>
			<path class="st8" d="M73.99,144.87c4.76-1.27,7.68-6.4,6.5-11.44c-0.58-2.45-2.02-4.52-4.06-5.81c-2.05-1.31-4.47-1.69-6.79-1.08
				c-2.32,0.61-4.27,2.15-5.49,4.32c-1.22,2.16-1.58,4.68-1.01,7.12c1,4.22,4.56,7.17,8.68,7.17
				C72.56,145.16,73.29,145.06,73.99,144.87z M68.78,133.73c0.49-0.87,1.27-1.48,2.19-1.72c0.27-0.07,0.55-0.11,0.85-0.11
				c0.62,0,1.24,0.19,1.8,0.54c0.82,0.52,1.39,1.35,1.63,2.35c0.24,1,0.09,2.03-0.4,2.9l0,0c-0.5,0.88-1.27,1.49-2.19,1.73
				c-0.88,0.23-1.79,0.1-2.58-0.38c-0.86-0.52-1.47-1.37-1.71-2.39C68.14,135.64,68.28,134.61,68.78,133.73z"/>
		</g>
		<g>
			<path class="st3" d="M162.01,172.77h-40.83v11.81h40.83V172.77z M126.76,178.99v-0.64h29.67v0.64H126.76z"/>
			<path class="st3" d="M80.44,183.52c1.54,0,2.79-1.25,2.79-2.79v-4.14c0-1.53-1.25-2.78-2.79-2.78c-1.54,0-2.79,1.25-2.79,2.78
				v4.14C77.65,182.27,78.9,183.52,80.44,183.52z"/>
			<path class="st3" d="M195.34,68c0.02-0.91-0.33-1.79-0.97-2.43l-10.84-10.84c-0.61-0.62-1.46-0.97-2.33-0.97l-0.09,0
				c-0.9,0.03-1.77,0.43-2.37,1.11l-20.08,22.51H80.44c-7.25,0-13.16,5.9-13.16,13.16v13.77c-1.4-0.66-2.95-0.8-4.45-0.4
				c-3.66,0.97-5.89,4.9-4.98,8.75l0.11,0.48c-1.3,0.82-2.52,1.79-3.66,2.87l-0.34-0.22c-1.58-1-3.43-1.29-5.21-0.82
				c-1.77,0.48-3.27,1.65-4.22,3.32c-0.93,1.66-1.21,3.6-0.77,5.45c0.45,1.88,1.55,3.45,3.11,4.44l0.38,0.24
				c-0.38,1.59-0.61,3.22-0.68,4.85l-0.41,0.11c-1.78,0.47-3.28,1.65-4.21,3.31c-0.94,1.65-1.21,3.59-0.77,5.45
				c0.45,1.91,1.64,3.57,3.27,4.55c1.54,0.93,3.33,1.19,5.05,0.73l0.38-0.1c0.79,1.4,1.71,2.71,2.73,3.91l-0.24,0.43
				c-0.93,1.64-1.2,3.57-0.76,5.44c0.44,1.86,1.54,3.44,3.11,4.46c1.59,1.01,3.44,1.3,5.22,0.82c1.77-0.46,3.27-1.63,4.22-3.31
				l0.21-0.37c1.46,0.39,2.96,0.63,4.47,0.71l0.1,0.45c0.44,1.86,1.54,3.44,3.11,4.45c1.06,0.68,2.28,1.04,3.54,1.04
				c0.57,0,1.13-0.07,1.68-0.21c0.95-0.25,1.81-0.71,2.56-1.32c0.21,0.01,0.42,0.03,0.64,0.03h28.31v2.71H67.28v12.12
				c0,6.68,5.43,12.11,12.1,12.11h80.88c6.68,0,12.11-5.43,12.11-12.11v-12.12h-39.39v-2.71h26.24c7.25,0,13.16-5.9,13.16-13.16
				V90.55c0-0.22-0.01-0.44-0.02-0.65l21.89-19.52C194.92,69.76,195.31,68.9,195.34,68z M68.65,153.75l-0.44-0.04
				c-1.41-0.15-2.82-0.49-4.2-1.01c-1.22-0.46-2.58,0.05-3.23,1.22l-1.3,2.28c-0.2,0.36-0.52,0.62-0.9,0.72
				c-0.36,0.1-0.74,0.04-1.09-0.19c-0.34-0.22-0.58-0.57-0.68-0.98c-0.1-0.43-0.04-0.87,0.17-1.24l1.3-2.28
				c0.64-1.13,0.43-2.61-0.49-3.5c-1.73-1.69-3.11-3.67-4.11-5.9c-0.55-1.23-1.82-1.86-3.1-1.53l-2.42,0.65
				c-0.37,0.1-0.74,0.04-1.06-0.15c-0.35-0.21-0.6-0.57-0.71-1.02c-0.1-0.43-0.04-0.87,0.18-1.25c0.2-0.36,0.52-0.62,0.89-0.72
				l2.43-0.64c1.23-0.33,2.09-1.53,2.03-2.85c-0.1-2.49,0.24-4.93,1.02-7.27c0.42-1.24-0.06-2.64-1.13-3.33l-2.16-1.38
				c-0.34-0.21-0.58-0.56-0.68-0.98c-0.1-0.42-0.04-0.87,0.18-1.25c0.2-0.36,0.52-0.61,0.91-0.71c0.37-0.1,0.75-0.04,1.08,0.17
				l2.15,1.37c1.1,0.7,2.53,0.49,3.4-0.51c1.57-1.83,3.43-3.29,5.53-4.36c1.14-0.57,1.75-1.92,1.45-3.21l-0.6-2.57
				c-0.21-0.86,0.28-1.74,1.08-1.95c0.35-0.09,0.72-0.04,1.04,0.15c0.36,0.21,0.62,0.58,0.72,1.01l0.61,2.58
				c0.12,0.52,0.4,0.97,0.75,1.33v0.05l0.29,0.21c0.07,0.06,0.16,0.1,0.24,0.15c0.03,0.02,0.07,0.04,0.1,0.06
				c0.1,0.05,0.2,0.09,0.3,0.13c0.04,0.02,0.08,0.04,0.12,0.05c0.12,0.04,0.23,0.07,0.35,0.09c0.03,0.01,0.05,0.01,0.08,0.02
				c0.12,0.02,0.23,0.03,0.35,0.03c0.03,0,0.07,0.01,0.1,0.01c0.02,0,0.04,0,0.05,0c0.43-0.02,0.86-0.02,1.29-0.01
				c0.06,0,0.12,0,0.18,0.01c0.44,0.02,0.88,0.05,1.31,0.1c1.37,0.16,2.71,0.49,4.02,0.99c1.21,0.45,2.57-0.07,3.22-1.22l1.29-2.28
				c0.2-0.36,0.51-0.61,0.9-0.72c0.13-0.04,0.27-0.04,0.4-0.03c0.13,0.44,0.35,0.85,0.69,1.2c0.21,0.21,0.45,0.37,0.71,0.5
				c-0.02,0.26-0.08,0.51-0.21,0.74l-1.29,2.28c-0.65,1.14-0.45,2.58,0.48,3.5c1.72,1.67,3.1,3.65,4.11,5.88
				c0.54,1.22,1.84,1.87,3.1,1.54l2.42-0.65c0.37-0.1,0.75-0.04,1.06,0.15c0.35,0.21,0.6,0.57,0.7,1.02
				c0.21,0.86-0.28,1.74-1.07,1.96l-2.43,0.64l0,0c-1.23,0.33-2.09,1.53-2.03,2.86c0.1,2.49-0.24,4.93-1.02,7.26
				c-0.42,1.27,0.05,2.64,1.14,3.33l2.14,1.37c0.35,0.22,0.59,0.57,0.69,0.98c0.1,0.42,0.03,0.87-0.18,1.25
				c-0.2,0.36-0.52,0.61-0.9,0.72c-0.37,0.1-0.75,0.04-1.08-0.17l-2.15-1.38c-1.11-0.69-2.54-0.47-3.4,0.52
				c-1.57,1.82-3.44,3.29-5.54,4.36c-1.13,0.57-1.74,1.91-1.44,3.19l0.61,2.58c0.05,0.2,0.06,0.41,0.03,0.61l-0.01,0.07
				c-0.02,0.1-0.04,0.2-0.07,0.3c-0.03,0.09-0.07,0.18-0.12,0.26c-0.05,0.09-0.11,0.17-0.18,0.25c-0.2,0.23-0.45,0.39-0.74,0.46
				c-0.02,0.01-0.05,0.01-0.07,0.01c-0.35,0.08-0.7,0.02-1.01-0.18c-0.34-0.21-0.58-0.56-0.68-0.98l-0.6-2.59
				c-0.17-0.74-0.62-1.34-1.2-1.72c-0.04-0.03-0.08-0.06-0.12-0.08c-0.01-0.01-0.02-0.01-0.03-0.01c-0.25-0.14-0.52-0.24-0.81-0.29
				c0,0-0.01,0-0.01,0c-0.15-0.03-0.3-0.04-0.45-0.04h0l0,0l-0.12,0c-0.34,0.02-0.69,0.02-1.05,0.02c-0.01,0-0.01,0-0.02,0
				C69.39,153.8,69.02,153.78,68.65,153.75z M82.24,156.37l-0.11-0.47c1.29-0.82,2.52-1.79,3.66-2.88l0.34,0.22
				c1.57,1,3.42,1.3,5.21,0.82c1.77-0.47,3.27-1.64,4.22-3.31c0.94-1.66,1.21-3.6,0.77-5.46c-0.44-1.87-1.54-3.45-3.11-4.45
				l-0.38-0.24c0.38-1.58,0.61-3.21,0.68-4.85l0.41-0.11c3.65-0.97,5.88-4.9,4.98-8.76c-0.46-1.94-1.62-3.55-3.27-4.54
				c-1.54-0.92-3.34-1.18-5.05-0.73l-0.38,0.1c-0.78-1.38-1.69-2.7-2.73-3.91l0.24-0.43c0.93-1.65,1.2-3.58,0.76-5.45
				c-0.04-0.16-0.09-0.32-0.14-0.48l15.83-15.82c0.53-0.53,0.82-1.23,0.82-1.97c0-0.75-0.29-1.45-0.82-1.98
				c-1.08-1.09-2.85-1.09-3.94,0l-15.46,15.46c-1.43-0.73-3.05-0.9-4.61-0.49c-1.77,0.47-3.27,1.64-4.21,3.31l-0.21,0.37
				c-0.94-0.25-1.9-0.43-2.88-0.56V90.55c0-4.18,3.4-7.58,7.58-7.58h73.24l-4.45,4.99c-9-3.79-19.59-1.73-26.51,5.2
				c-6.36,6.36-8.66,15.66-6.01,24.25c0.33,1.1,1.24,1.95,2.36,2.23c1.12,0.27,2.32-0.07,3.13-0.87l12.7-12.7l9.12,9.11l-12.7,12.71
				c-0.81,0.8-1.15,1.99-0.88,3.12c0.28,1.13,1.14,2.03,2.24,2.36c2.36,0.73,4.77,1.08,7.16,1.08c6.32,0,12.47-2.48,17.09-7.09
				c7.27-7.28,9.12-18.64,4.59-27.82l5.27-4.7v55.83c0,4.18-3.4,7.58-7.58,7.58H82.43C82.44,157.63,82.38,157,82.24,156.37z
				 M170.07,83.09l-1.81,1.62l-13.11,11.69l0,0c-1.21,1.08-1.45,2.91-0.57,4.26c4.52,6.93,3.55,16.2-2.3,22.04
				c-3.1,3.1-7.25,4.93-11.57,5.14l10.32-10.31c0.62-0.62,0.97-1.46,0.97-2.34c0-0.88-0.34-1.71-0.97-2.33l-13.79-13.79
				c-0.62-0.62-1.48-0.93-2.33-0.93c-0.86,0-1.71,0.31-2.34,0.93l-10.32,10.32c0.22-4.32,2.04-8.46,5.13-11.56
				c5.55-5.55,14.2-6.74,21.03-2.91c1.34,0.75,3.05,0.45,4.07-0.7l9.55-10.71l0,0l3.85-4.32l0,0l15.45-17.31l5.88,5.9L170.07,83.09
				L170.07,83.09z M114.32,166.55v-2.71h13.08v2.71H114.32z M166.8,172.12v6.55c0,3.61-2.93,6.54-6.53,6.54H79.39
				c-3.6,0-6.53-2.93-6.53-6.54v-6.55H166.8z"/>
			<path class="st3" d="M72.22,143.69c4.76-1.27,7.68-6.4,6.5-11.44c-0.58-2.45-2.02-4.52-4.06-5.81c-2.05-1.31-4.47-1.69-6.79-1.08
				c-2.32,0.61-4.27,2.15-5.49,4.32c-1.22,2.16-1.58,4.68-1.01,7.12c1,4.22,4.56,7.17,8.68,7.17
				C70.79,143.97,71.52,143.88,72.22,143.69z M67.01,132.54c0.49-0.87,1.27-1.48,2.19-1.72c0.27-0.07,0.55-0.11,0.85-0.11
				c0.62,0,1.24,0.19,1.8,0.54c0.82,0.52,1.39,1.35,1.63,2.35c0.24,1,0.09,2.03-0.4,2.9l0,0c-0.5,0.88-1.27,1.49-2.19,1.73
				c-0.88,0.23-1.79,0.1-2.58-0.38c-0.86-0.52-1.47-1.37-1.71-2.39C66.37,134.46,66.51,133.42,67.01,132.54z"/>
		</g>
	</g>
</g>
</svg>
