<?xml version="1.0" encoding="utf-8"?>
<!-- Generator: Adobe Illustrator 24.3.0, SVG Export Plug-In . SVG Version: 6.00 Build 0)  -->
<svg version="1.1" xmlns="http://www.w3.org/2000/svg" xmlns:xlink="http://www.w3.org/1999/xlink" x="0px" y="0px"
	 viewBox="0 0 250 250" style="enable-background:new 0 0 250 250;" xml:space="preserve">
<style type="text/css">
	.st0{fill:#05194C;}
	.st1{fill:url(#SVGID_1_);}
	.st2{fill:#03123D;}
	.st3{fill:#FFFFFF;}
	.st4{fill:url(#SVGID_2_);}
	.st5{fill:url(#SVGID_3_);}
	.st6{fill:url(#SVGID_4_);}
	.st7{fill:url(#SVGID_5_);}
	.st8{fill:#1D1D1B;}
</style>
<g id="Capa_1">
</g>
<g id="Background">
	<g>
		<polygon class="st0" points="189.15,229.05 249,125.39 189.15,21.73 69.45,21.73 9.6,125.39 69.45,229.05 		"/>
		<radialGradient id="SVGID_1_" cx="120.7022" cy="124.6093" r="111.9707" gradientUnits="userSpaceOnUse">
			<stop  offset="0" style="stop-color:#006FFF"/>
			<stop  offset="0.1364" style="stop-color:#0068F1"/>
			<stop  offset="0.3955" style="stop-color:#0056CB"/>
			<stop  offset="0.7467" style="stop-color:#00388F"/>
			<stop  offset="1" style="stop-color:#002160"/>
		</radialGradient>
		<polygon class="st1" points="180.55,228.27 240.4,124.61 180.55,20.95 60.85,20.95 1,124.61 60.85,228.27 		"/>
		<g id="capacitacion_icono_3_">
			<g>
				<path class="st2" d="M181.02,69.8c-22.55,0-45.01,0-67.64,0c0,2.15,0.01,4.24,0,6.33c-0.01,1.94-0.88,3.06-2.32,3.02
					c-1.4-0.04-2.18-1.11-2.19-3c-0.01-2.06,0-4.11,0-6.4c-1.38,0-2.73,0.01-4.07,0c-1.86-0.02-2.69-0.86-2.7-2.77
					c-0.02-2.84-0.02-5.69,0-8.53c0.01-1.94,0.82-2.79,2.65-2.81c1.88-0.02,3.76-0.01,5.64-0.01c26.19,0,52.39,0,78.58,0
					c2.8,0,3.41,0.62,3.41,3.51c0,2.6,0.01,5.2,0,7.8c-0.01,1.93-0.83,2.78-2.66,2.81c-1.31,0.02-2.62,0-4.11,0c0,0.66,0,1.23,0,1.8
					c0,15.54,0,31.09,0,46.63c0,5.3-2.65,8.05-7.74,8.06c-8.89,0-17.78,0-26.66,0c-0.51,0-1.02,0-1.71,0c0,3.16-0.03,6.23,0.04,9.3
					c0.01,0.35,0.58,0.78,0.97,1.01c2.99,1.8,4.25,5.43,3.02,8.75c-1.19,3.19-4.47,5.07-7.62,4.37c-3.35-0.74-5.66-3.85-5.42-7.38
					c0.18-2.58,1.39-4.56,3.6-5.76c0.69-0.37,0.92-0.78,0.91-1.56c-0.04-2.84-0.02-5.68-0.02-8.73c-0.56,0-1.06,0-1.55,0
					c-9.03,0-18.06,0-27.09,0c-4.71,0-7.47-2.87-7.48-7.74c-0.01-4.27-0.01-8.53,0-12.8c0-1.88,0.8-2.95,2.2-2.98
					c1.45-0.04,2.3,1.07,2.31,3.03c0.01,4.27,0,8.53,0.01,12.8c0,2.19,0.78,2.99,2.91,2.99c20.64,0,41.29,0,61.93,0
					c1.99,0,2.86-0.81,2.86-2.75c0.01-16.13,0-32.26,0-48.39C181.09,70.23,181.06,70.09,181.02,69.8z M106.67,64.93
					c27.12,0,54.12,0,81.08,0c0-1.59,0-3.08,0-4.53c-27.08,0-54.05,0-81.08,0C106.67,61.93,106.67,63.38,106.67,64.93z
					 M147.23,145.04c1.21,0,2.23-1.04,2.26-2.3c0.03-1.32-1.05-2.43-2.31-2.39c-1.21,0.04-2.2,1.11-2.19,2.37
					C145.01,144,146.02,145.04,147.23,145.04z"/>
				<path class="st2" d="M65.98,121.37c0-0.5,0-1.02,0-1.55c0-4.76-0.01-9.51,0-14.27c0-1.76,0.83-2.81,2.19-2.85
					c1.41-0.04,2.32,1.05,2.32,2.87c0.01,10.64,0.01,21.28,0,31.92c0,1.75-0.84,2.81-2.19,2.85c-1.41,0.04-2.31-1.05-2.31-2.87
					c-0.01-3.67,0-7.35,0-11.24c-0.7,0-1.33,0.01-1.97,0c-4.15-0.04-7.04-3-7.06-7.29c-0.02-6.96-0.04-13.92,0-20.89
					c0.05-7.87,5.83-13.96,13.35-14.18c0.36-0.01,0.72-0.03,1.12-0.05c-4.59-8.69-3.97-15.42,1.81-20.35
					c4.98-4.24,12.24-4.21,17.16,0.08c5.7,4.96,6.29,11.76,1.68,20.32c0.58,0,1.07,0,1.57,0c6.58,0,13.17-0.03,19.75,0.01
					c3.55,0.02,6.43,2.83,6.72,6.43c0.29,3.62-2.06,6.87-5.55,7.55c-0.87,0.17-1.78,0.13-2.67,0.13c-4.7,0.01-9.4,0.01-14.33,0.01
					c0,0.61,0,1.17,0,1.73c0,12.31,0,24.61,0,36.92c0,0.39,0.01,0.79,0,1.18c-0.07,1.51-0.95,2.51-2.22,2.53
					c-1.28,0.02-2.2-0.97-2.28-2.46c-0.02-0.29-0.01-0.59-0.01-0.88c0-13.43,0-26.87,0-40.3c0-2.77,0.63-3.42,3.35-3.42
					c5.45,0,10.91,0.05,16.36-0.05c0.85-0.02,1.96-0.52,2.49-1.2c0.99-1.27,0.03-3.15-1.58-3.42c-0.41-0.07-0.84-0.04-1.27-0.04
					c-13.73,0-27.46,0-41.19,0c-6.02,0-9.76,3.9-9.77,10.18c0,6.28,0.11,12.55-0.04,18.83C61.33,121.47,62.95,121.85,65.98,121.37z
					 M72.75,74.36c-0.03,5.21,4,9.47,8.98,9.5c4.98,0.03,9.07-4.21,9.07-9.41c0-5.15-4-9.37-8.91-9.42
					C76.89,64.99,72.78,69.18,72.75,74.36z"/>
				<path class="st2" d="M89.52,173.46c1.53,0.8,3.08,1.42,4.41,2.37c3.78,2.7,5.72,6.53,5.88,11.3c0.08,2.3,0.03,4.61,0.02,6.91
					c-0.01,1.73-0.89,2.78-2.26,2.78c-1.36,0-2.24-1.06-2.25-2.79c-0.02-2.21,0.02-4.41-0.01-6.62c-0.08-5.31-3.98-9.36-9.08-9.4
					c-4.47-0.04-8.93-0.04-13.4,0c-5.18,0.04-9.05,4.12-9.11,9.53c-0.02,2.16,0.01,4.31-0.01,6.47c-0.01,1.74-0.87,2.79-2.23,2.81
					c-1.37,0.02-2.27-1.04-2.27-2.76c0-2.7-0.2-5.42,0.1-8.08c0.68-5.94,3.89-9.93,9.28-11.99c0.3-0.11,0.61-0.21,1.07-0.36
					c-3.06-3.76-4.34-7.95-3.37-12.73c0.68-3.39,2.39-6.15,5.03-8.26c5.37-4.29,12.97-3.74,17.77,1.23
					C93.35,158.29,95.17,166.44,89.52,173.46z M79.47,173.3c5,0.02,9.07-4.2,9.07-9.4c0.01-5.14-3.99-9.38-8.91-9.42
					c-5-0.05-9.1,4.13-9.15,9.33C70.45,169,74.5,173.28,79.47,173.3z"/>
				<path class="st2" d="M134.68,173.45c1.59,0.87,3.23,1.53,4.62,2.55c3.56,2.62,5.43,6.31,5.64,10.83
					c0.12,2.45,0.05,4.9,0.03,7.35c-0.02,1.61-0.92,2.64-2.25,2.64c-1.32,0-2.23-1.03-2.25-2.64c-0.03-2.25,0.02-4.51-0.02-6.76
					c-0.08-5.31-3.97-9.36-9.08-9.41c-4.47-0.04-8.93-0.04-13.4,0c-5.18,0.04-9.05,4.11-9.11,9.53c-0.02,2.16,0.01,4.31-0.01,6.47
					c-0.01,1.74-0.87,2.79-2.23,2.81c-1.37,0.02-2.27-1.04-2.27-2.76c0-2.7-0.2-5.42,0.1-8.08c0.68-5.94,3.88-9.93,9.27-11.99
					c0.3-0.11,0.61-0.21,1.07-0.36c-3.06-3.76-4.34-7.95-3.37-12.72c0.68-3.39,2.39-6.15,5.02-8.26c5.37-4.29,12.97-3.74,17.77,1.23
					C138.51,158.3,140.3,166.46,134.68,173.45z M133.69,163.84c-0.02-5.19-4.11-9.41-9.1-9.37c-4.98,0.04-8.99,4.31-8.95,9.53
					c0.04,5.11,4.11,9.3,9.03,9.29C129.66,173.29,133.71,169.05,133.69,163.84z"/>
				<path class="st2" d="M159.84,173.5c-5.77-7.12-3.85-15.6,0.8-20.03c5.15-4.91,13.04-4.95,18.24-0.09
					c4.62,4.33,6.78,12.8,0.84,20.21c0.5,0.2,0.95,0.39,1.41,0.56c5.3,1.99,8.87,7.13,8.98,13c0.04,2.3,0.03,4.61,0.01,6.91
					c-0.01,1.72-0.91,2.78-2.28,2.76c-1.36-0.02-2.21-1.07-2.23-2.81c-0.02-2.21,0.02-4.41-0.01-6.62
					c-0.08-5.24-3.96-9.32-8.97-9.38c-4.56-0.05-9.12-0.05-13.68,0c-5,0.06-8.87,4.16-8.94,9.4c-0.03,2.21,0.01,4.41-0.01,6.62
					c-0.01,1.73-0.89,2.79-2.25,2.78c-1.36,0-2.26-1.06-2.25-2.79c0.02-2.84-0.19-5.72,0.18-8.51c0.78-5.88,4.11-9.71,9.49-11.63
					c0.18-0.06,0.35-0.13,0.52-0.2C159.73,173.69,159.75,173.63,159.84,173.5z M169.82,154.47c-4.99,0-9.04,4.23-9.03,9.44
					c0,5.13,4.03,9.35,8.95,9.38c5,0.03,9.08-4.17,9.1-9.37C178.86,158.72,174.8,154.47,169.82,154.47z"/>
				<path class="st2" d="M147.38,79.16c7.15,0,14.29,0,21.44,0c0.47,0,0.96-0.05,1.4,0.06c1.13,0.28,1.81,1.06,1.81,2.29
					c0,1.24-0.68,2.01-1.82,2.29c-0.45,0.11-0.94,0.06-1.4,0.06c-14.39,0-28.78,0-43.17,0c-0.42,0-0.86,0.04-1.27-0.04
					c-1.21-0.24-1.95-1.02-1.95-2.32c0-1.3,0.74-2.08,1.95-2.31c0.41-0.08,0.84-0.04,1.27-0.04
					C132.9,79.16,140.14,79.16,147.38,79.16z"/>
				<path class="st2" d="M147.28,112.11c-7.19,0-14.39,0-21.58,0c-0.47,0-0.95,0.05-1.41-0.05c-1.14-0.26-1.84-1.02-1.86-2.25
					c-0.02-1.3,0.7-2.1,1.91-2.36c0.41-0.09,0.84-0.04,1.27-0.04c14.44,0,28.87,0,43.31,0c0.38,0,0.76-0.04,1.13,0.03
					c1.22,0.22,1.93,0.98,2,2.28c0.07,1.21-0.83,2.23-2.05,2.38c-0.42,0.05-0.85,0.02-1.27,0.02
					C161.58,112.11,154.43,112.11,147.28,112.11z"/>
				<path class="st2" d="M158.48,97.98c-3.57,0-7.15,0.01-10.72,0c-1.76-0.01-2.79-0.93-2.76-2.4c0.03-1.43,1.03-2.29,2.72-2.3
					c7.19-0.01,14.39-0.01,21.58,0c1.75,0,2.79,0.93,2.76,2.4c-0.03,1.42-1.04,2.29-2.72,2.3C165.72,97.99,162.1,97.98,158.48,97.98
					z"/>
				<path class="st2" d="M131.3,97.98c-2.07,0-4.14,0.01-6.21,0c-1.67-0.01-2.67-0.92-2.67-2.35c0-1.43,1.01-2.34,2.67-2.35
					c4.23-0.01,8.46-0.01,12.69,0c1.66,0.01,2.67,0.92,2.67,2.35c0,1.42-1.01,2.34-2.67,2.35C135.62,98,133.46,97.98,131.3,97.98z"
					/>
				<path class="st2" d="M79.52,130.79c0-2.16-0.01-4.31,0-6.47c0.01-1.73,0.89-2.78,2.25-2.78c1.37,0,2.25,1.06,2.25,2.78
					c0.01,4.41,0.01,8.82,0,13.24c-0.01,1.73-0.89,2.79-2.25,2.79c-1.36,0-2.24-1.06-2.25-2.78
					C79.51,135.3,79.52,133.04,79.52,130.79z"/>
			</g>
		</g>
		<g id="capacitacion_icono_2_">
			<g>
				<path class="st3" d="M178.65,68.62c-22.55,0-45.01,0-67.64,0c0,2.15,0.01,4.24,0,6.33c-0.01,1.94-0.88,3.06-2.32,3.02
					c-1.4-0.04-2.18-1.11-2.19-3c-0.01-2.06,0-4.11,0-6.4c-1.38,0-2.73,0.01-4.07,0c-1.86-0.02-2.69-0.86-2.7-2.77
					c-0.02-2.84-0.02-5.69,0-8.53c0.01-1.94,0.82-2.79,2.65-2.81c1.88-0.02,3.76-0.01,5.64-0.01c26.19,0,52.39,0,78.58,0
					c2.8,0,3.41,0.62,3.41,3.51c0,2.6,0.01,5.2,0,7.8c-0.01,1.93-0.83,2.78-2.66,2.81c-1.31,0.02-2.62,0-4.11,0c0,0.66,0,1.23,0,1.8
					c0,15.54,0,31.09,0,46.63c0,5.3-2.65,8.05-7.74,8.06c-8.89,0-17.78,0-26.66,0c-0.51,0-1.02,0-1.71,0c0,3.16-0.03,6.23,0.04,9.3
					c0.01,0.35,0.58,0.78,0.97,1.01c2.99,1.8,4.25,5.43,3.02,8.75c-1.19,3.19-4.47,5.07-7.62,4.37c-3.35-0.74-5.66-3.85-5.42-7.38
					c0.18-2.58,1.39-4.56,3.6-5.76c0.69-0.37,0.92-0.78,0.91-1.56c-0.04-2.84-0.02-5.68-0.02-8.73c-0.56,0-1.06,0-1.55,0
					c-9.03,0-18.06,0-27.09,0c-4.71,0-7.47-2.87-7.48-7.74c-0.01-4.27-0.01-8.53,0-12.8c0-1.88,0.8-2.95,2.2-2.98
					c1.45-0.04,2.3,1.07,2.31,3.03c0.01,4.27,0,8.53,0.01,12.8c0,2.19,0.78,2.99,2.91,2.99c20.64,0,41.29,0,61.93,0
					c1.99,0,2.86-0.81,2.86-2.75c0.01-16.13,0-32.26,0-48.39C178.73,69.05,178.69,68.91,178.65,68.62z M104.31,63.75
					c27.12,0,54.12,0,81.08,0c0-1.59,0-3.08,0-4.53c-27.08,0-54.05,0-81.08,0C104.31,60.75,104.31,62.2,104.31,63.75z
					 M144.86,143.86c1.21,0,2.23-1.04,2.26-2.3c0.03-1.32-1.05-2.43-2.31-2.39c-1.21,0.04-2.2,1.11-2.19,2.37
					C142.64,142.81,143.65,143.86,144.86,143.86z"/>
				<path class="st3" d="M63.61,120.19c0-0.5,0-1.02,0-1.55c0-4.76-0.01-9.51,0-14.27c0-1.76,0.83-2.81,2.19-2.85
					c1.41-0.04,2.32,1.05,2.32,2.87c0.01,10.64,0.01,21.28,0,31.92c0,1.75-0.84,2.81-2.19,2.85c-1.41,0.04-2.31-1.05-2.31-2.87
					c-0.01-3.67,0-7.35,0-11.24c-0.7,0-1.33,0.01-1.97,0c-4.15-0.04-7.04-3-7.06-7.29c-0.02-6.96-0.04-13.92,0-20.89
					c0.05-7.87,5.83-13.96,13.35-14.18c0.36-0.01,0.72-0.03,1.12-0.05c-4.59-8.69-3.97-15.42,1.81-20.35
					c4.98-4.24,12.24-4.21,17.16,0.08c5.7,4.96,6.29,11.76,1.68,20.32c0.58,0,1.07,0,1.57,0c6.58,0,13.17-0.03,19.75,0.01
					c3.55,0.02,6.43,2.83,6.72,6.43c0.29,3.62-2.06,6.87-5.55,7.55c-0.87,0.17-1.78,0.13-2.67,0.13c-4.7,0.01-9.4,0.01-14.33,0.01
					c0,0.61,0,1.17,0,1.73c0,12.31,0,24.61,0,36.92c0,0.39,0.01,0.79,0,1.18c-0.07,1.51-0.95,2.51-2.22,2.53
					c-1.28,0.02-2.2-0.97-2.28-2.46c-0.02-0.29-0.01-0.59-0.01-0.88c0-13.43,0-26.87,0-40.3c0-2.77,0.63-3.42,3.35-3.42
					c5.45,0,10.91,0.05,16.36-0.05c0.85-0.02,1.96-0.52,2.49-1.2c0.99-1.27,0.03-3.15-1.58-3.42c-0.41-0.07-0.84-0.04-1.27-0.04
					c-13.73,0-27.46,0-41.19,0c-6.02,0-9.76,3.9-9.77,10.18c0,6.28,0.11,12.55-0.04,18.83C58.97,120.29,60.58,120.67,63.61,120.19z
					 M70.39,73.18c-0.03,5.21,4,9.47,8.98,9.5c4.98,0.03,9.07-4.21,9.07-9.41c0-5.15-4-9.37-8.91-9.42
					C74.52,63.81,70.41,68,70.39,73.18z"/>
				<path class="st3" d="M87.16,172.28c1.53,0.8,3.08,1.42,4.41,2.37c3.78,2.7,5.72,6.53,5.88,11.3c0.08,2.3,0.03,4.61,0.02,6.91
					c-0.01,1.73-0.89,2.78-2.26,2.78c-1.36,0-2.24-1.06-2.25-2.79c-0.02-2.21,0.02-4.41-0.01-6.62c-0.08-5.31-3.98-9.36-9.08-9.4
					c-4.47-0.04-8.93-0.04-13.4,0c-5.18,0.04-9.05,4.12-9.11,9.53c-0.02,2.16,0.01,4.31-0.01,6.47c-0.01,1.74-0.87,2.79-2.23,2.81
					c-1.37,0.01-2.27-1.04-2.27-2.76c0-2.7-0.2-5.42,0.1-8.08c0.68-5.94,3.89-9.93,9.28-11.99c0.3-0.11,0.61-0.21,1.07-0.36
					c-3.06-3.76-4.34-7.95-3.37-12.73c0.68-3.39,2.39-6.15,5.03-8.26c5.37-4.29,12.97-3.74,17.77,1.23
					C90.99,157.11,92.8,165.26,87.16,172.28z M77.11,172.11c5,0.02,9.07-4.2,9.07-9.4c0.01-5.14-3.99-9.38-8.91-9.42
					c-5-0.05-9.1,4.13-9.15,9.33C68.09,167.82,72.13,172.1,77.11,172.11z"/>
				<path class="st3" d="M132.32,172.26c1.59,0.87,3.23,1.53,4.62,2.55c3.56,2.62,5.43,6.31,5.64,10.83
					c0.12,2.45,0.05,4.9,0.03,7.35c-0.02,1.61-0.92,2.64-2.25,2.64c-1.32,0-2.23-1.03-2.25-2.64c-0.03-2.25,0.02-4.51-0.02-6.76
					c-0.08-5.31-3.97-9.36-9.08-9.41c-4.47-0.04-8.93-0.04-13.4,0c-5.18,0.04-9.05,4.11-9.11,9.53c-0.02,2.16,0.01,4.31-0.01,6.47
					c-0.01,1.74-0.87,2.79-2.23,2.81c-1.37,0.02-2.27-1.04-2.27-2.76c0-2.7-0.2-5.42,0.1-8.08c0.68-5.94,3.88-9.93,9.27-11.99
					c0.3-0.11,0.61-0.21,1.07-0.36c-3.06-3.76-4.34-7.95-3.37-12.72c0.68-3.39,2.39-6.15,5.02-8.26c5.37-4.29,12.97-3.74,17.77,1.23
					C136.14,157.12,137.93,165.28,132.32,172.26z M131.33,162.66c-0.02-5.19-4.11-9.41-9.1-9.37c-4.98,0.04-8.99,4.31-8.95,9.53
					c0.04,5.11,4.11,9.3,9.03,9.29C127.3,172.11,131.34,167.87,131.33,162.66z"/>
				<path class="st3" d="M157.48,172.32c-5.77-7.12-3.85-15.6,0.8-20.03c5.15-4.91,13.04-4.95,18.24-0.09
					c4.62,4.33,6.78,12.8,0.84,20.21c0.5,0.2,0.95,0.39,1.41,0.56c5.3,1.99,8.87,7.13,8.98,13c0.04,2.3,0.03,4.61,0.01,6.91
					c-0.01,1.72-0.91,2.78-2.28,2.76c-1.36-0.02-2.21-1.07-2.23-2.81c-0.02-2.21,0.02-4.41-0.01-6.62
					c-0.08-5.24-3.96-9.32-8.97-9.38c-4.56-0.05-9.12-0.05-13.68,0c-5,0.06-8.87,4.16-8.94,9.4c-0.03,2.21,0.01,4.41-0.01,6.62
					c-0.01,1.73-0.89,2.79-2.25,2.78c-1.36,0-2.26-1.06-2.25-2.79c0.02-2.84-0.19-5.72,0.18-8.51c0.78-5.88,4.11-9.71,9.49-11.63
					c0.18-0.06,0.35-0.13,0.52-0.2C157.37,172.5,157.39,172.44,157.48,172.32z M167.45,153.29c-4.99,0-9.04,4.23-9.03,9.44
					c0,5.13,4.03,9.35,8.95,9.38c5,0.03,9.08-4.17,9.1-9.37C176.49,157.54,172.44,153.29,167.45,153.29z"/>
				<path class="st3" d="M145.02,77.97c7.15,0,14.29,0,21.44,0c0.47,0,0.96-0.05,1.4,0.06c1.13,0.28,1.81,1.06,1.81,2.29
					c0,1.24-0.68,2.01-1.82,2.29c-0.45,0.11-0.94,0.06-1.4,0.06c-14.39,0-28.78,0-43.17,0c-0.42,0-0.86,0.04-1.27-0.04
					c-1.21-0.24-1.95-1.02-1.95-2.32c0-1.3,0.74-2.08,1.95-2.31c0.41-0.08,0.84-0.04,1.27-0.04
					C130.53,77.97,137.77,77.97,145.02,77.97z"/>
				<path class="st3" d="M144.92,110.92c-7.19,0-14.39,0-21.58,0c-0.47,0-0.95,0.05-1.41-0.05c-1.14-0.26-1.84-1.02-1.86-2.25
					c-0.02-1.3,0.7-2.1,1.91-2.36c0.41-0.09,0.84-0.04,1.27-0.04c14.44,0,28.87,0,43.31,0c0.38,0,0.76-0.04,1.13,0.03
					c1.22,0.22,1.93,0.98,2,2.28c0.07,1.21-0.83,2.23-2.05,2.38c-0.42,0.05-0.85,0.02-1.27,0.02
					C159.21,110.92,152.07,110.92,144.92,110.92z"/>
				<path class="st3" d="M156.11,96.8c-3.57,0-7.15,0.01-10.72,0c-1.76-0.01-2.79-0.93-2.76-2.4c0.03-1.43,1.03-2.29,2.72-2.3
					c7.19-0.01,14.39-0.01,21.58,0c1.75,0,2.79,0.93,2.76,2.4c-0.03,1.42-1.04,2.29-2.72,2.3C163.35,96.81,159.73,96.8,156.11,96.8z
					"/>
				<path class="st3" d="M128.93,96.8c-2.07,0-4.14,0.01-6.21,0c-1.67-0.01-2.67-0.92-2.67-2.35c0-1.43,1.01-2.34,2.67-2.35
					c4.23-0.01,8.46-0.01,12.69,0c1.66,0.01,2.67,0.92,2.67,2.35c0,1.42-1.01,2.34-2.67,2.35C133.26,96.82,131.09,96.8,128.93,96.8z
					"/>
				<path class="st3" d="M77.16,129.6c0-2.16-0.01-4.31,0-6.47c0.01-1.73,0.89-2.78,2.25-2.78c1.37,0,2.25,1.06,2.25,2.78
					c0.01,4.41,0.01,8.82,0,13.24c-0.01,1.73-0.89,2.79-2.25,2.79c-1.36,0-2.24-1.06-2.25-2.78
					C77.14,134.11,77.16,131.86,77.16,129.6z"/>
			</g>
		</g>
	</g>
</g>
</svg>
